<?xml version="1.0" encoding="UTF-8" standalone="no"?>
<!-- Created with Inkscape (http://www.inkscape.org/) -->

<svg
   xmlns:dc="http://purl.org/dc/elements/1.1/"
   xmlns:cc="http://creativecommons.org/ns#"
   xmlns:rdf="http://www.w3.org/1999/02/22-rdf-syntax-ns#"
   xmlns:svg="http://www.w3.org/2000/svg"
   xmlns="http://www.w3.org/2000/svg"
   xmlns:sodipodi="http://sodipodi.sourceforge.net/DTD/sodipodi-0.dtd"
   xmlns:inkscape="http://www.inkscape.org/namespaces/inkscape"
   width="146mm"
   height="146mm"
   viewBox="0 0 146 146"
   version="1.1"
   id="svg4573"
   inkscape:version="0.92.2 (5c3e80d, 2017-08-06)"
   sodipodi:docname="DC-symbol-incscape.svg">
  <defs
     id="defs4567" />
  <sodipodi:namedview
     id="base"
     pagecolor="#ffffff"
     bordercolor="#666666"
     borderopacity="1.0"
     inkscape:pageopacity="0.0"
     inkscape:pageshadow="2"
     inkscape:zoom="1.4"
     inkscape:cx="194.70726"
     inkscape:cy="211.39709"
     inkscape:document-units="mm"
     inkscape:current-layer="layer1"
     showgrid="false"
     inkscape:measure-start="0,0"
     inkscape:measure-end="0,0"
     inkscape:window-width="1601"
     inkscape:window-height="1712"
     inkscape:window-x="-9"
     inkscape:window-y="0"
     inkscape:window-maximized="0" />
  <metadata
     id="metadata4570">
    <rdf:RDF>
      <cc:Work
         rdf:about="">
        <dc:format>image/svg+xml</dc:format>
        <dc:type
           rdf:resource="http://purl.org/dc/dcmitype/StillImage" />
        <dc:title></dc:title>
      </cc:Work>
    </rdf:RDF>
  </metadata>
  <g
     inkscape:label="Layer 1"
     inkscape:groupmode="layer"
     id="layer1"
     transform="translate(0,-151)">
    <path
       style="fill:#5a5a5a;fill-opacity:1;stroke-width:0.16935788"
       d="m 44.85465,255.23624 v -3.78914 l 28.237143,0.0427 28.237147,0.0425 v 3.70396 3.70395 l -28.237147,0.0425 -28.237143,0.0426 z m -22.544286,-6.9309 c -0.06247,-0.0617 -0.113575,-1.76639 -0.113575,-3.78814 v -3.67589 h 12.095549 12.09555 v 3.78814 3.78814 H 34.405913 c -6.590087,0 -12.033085,-0.0505 -12.095549,-0.11226 z m 28.034806,-1.1e-4 c -0.119094,-0.0475 -0.329913,-0.30311 -0.468489,-0.56794 -0.219586,-0.41965 -0.251957,-4.31284 -0.251957,-30.30287 v -29.82135 l 0.497976,-0.49213 0.497975,-0.49214 h 22.407407 c 16.393357,0 22.521667,0.0515 22.833115,0.19169 1.017779,0.4583 0.960173,-1.49556 0.912023,30.92921 l -0.04398,29.63306 -0.359096,0.47532 -0.359107,0.47533 -22.724656,0.0291 c -12.498562,0.0159 -22.8221,-0.009 -22.941193,-0.0572 z m 43.022969,-7.9885 0.04612,-3.30256 -0.642374,-0.10492 c -0.836842,-0.13669 -38.264495,-0.13723 -39.101108,-5.1e-4 l -0.63885,0.10435 v 3.3459 3.34589 l 20.145052,-0.0428 20.145051,-0.0428 0.04612,-3.30256 z m -36.558605,0.80836 c -1.176919,-1.23808 0.550299,-3.00944 1.906468,-1.95519 0.599569,0.46609 0.626645,1.44766 0.05458,1.97878 -0.540313,0.50165 -1.472417,0.49044 -1.961052,-0.0236 z m 21.612641,0.0212 c -0.719302,-0.76301 -0.254153,-2.19792 0.759983,-2.34442 1.015544,-0.14668 1.9418,0.74054 1.713128,1.64097 -0.267818,1.05455 -1.745818,1.47497 -2.473111,0.70345 z m 4.795562,0.0252 c -0.869819,-0.80085 -0.230563,-2.35051 0.969625,-2.35051 0.784228,0 1.156457,0.24674 1.379416,0.91439 0.156487,0.4686 0.143937,0.67549 -0.06524,1.07525 -0.142456,0.27224 -0.383108,0.54205 -0.534782,0.59957 -0.559063,0.21201 -1.381387,0.0998 -1.749022,-0.2387 z m 4.863364,0.13283 c -0.520851,-0.39088 -0.669088,-1.10184 -0.362755,-1.73983 0.151891,-0.31633 0.287102,-0.57515 0.300469,-0.57515 0.01338,0 0.262793,-0.0675 0.55428,-0.15021 1.142888,-0.32393 2.134177,0.72233 1.740851,1.83738 -0.09868,0.27976 -0.319637,0.58281 -0.491018,0.67344 -0.436412,0.23083 -1.407337,0.20538 -1.741827,-0.0456 z m 4.53923,-8.98863 0.793918,-0.10756 -0.04612,-3.30178 -0.04612,-3.30179 H 73.219563 53.117102 l -0.04615,3.31364 -0.04615,3.31361 0.472053,0.0705 c 0.781397,0.11665 38.266367,0.12948 39.123481,0.0134 z m -35.431687,-2.32153 c -0.578955,-0.24908 -0.749525,-0.54233 -0.749525,-1.28862 0,-0.70622 0.536529,-1.16476 1.362878,-1.16476 0.826349,0 1.362879,0.45854 1.362879,1.16476 0,0.72106 -0.154806,1.00734 -0.693623,1.28272 -0.577263,0.29501 -0.610255,0.29516 -1.282609,0.007 z m 21.304331,-0.17284 c -0.873677,-0.86343 -0.273207,-2.4489 0.927478,-2.4489 0.782107,0 1.448267,0.65825 1.448267,1.43108 0,1.24414 -1.497542,1.88572 -2.375745,1.01782 z m 4.800794,0.0643 c -0.362157,-0.28153 -0.448874,-0.49059 -0.448874,-1.08214 0,-0.59154 0.08672,-0.80059 0.448874,-1.08213 0.59239,-0.46051 1.297,-0.44167 1.875556,0.0501 1.39969,1.18985 -0.422436,3.24374 -1.875556,2.11413 z m 4.740811,-0.0346 c -0.651978,-0.55422 -0.660733,-1.53338 -0.01859,-2.07924 0.966746,-0.82182 2.392883,-0.20692 2.392883,1.03172 0,1.22574 -1.425038,1.85447 -2.374293,1.04752 z m 5.333947,-12.15882 c 0.04157,-2.85883 0.01551,-3.22071 -0.24551,-3.40934 -0.230033,-0.16623 -4.458673,-0.21101 -19.922082,-0.21101 -10.796537,0 -19.75133,0.046 -19.89954,0.10217 -0.232794,0.0883 -0.269473,0.54278 -0.269473,3.33917 0,1.78034 0.05142,3.2878 0.11427,3.3499 0.06284,0.0622 9.128122,0.0937 20.145052,0.0702 l 20.03078,-0.0428 z m -14.271549,1.14323 c -1.523467,-0.55038 -1.267421,-2.74325 0.320309,-2.74325 0.750486,0 1.125592,0.22698 1.380592,0.83538 0.300227,0.71632 -0.03714,1.48498 -0.787798,1.79493 -0.308793,0.12753 -0.583069,0.22586 -0.609501,0.21855 -0.02644,-0.007 -0.163056,-0.0548 -0.303602,-0.10561 z m 4.497441,-0.1215 c -1.325516,-0.57027 -0.861547,-2.62175 0.592943,-2.62175 0.75958,0 1.144789,0.23804 1.356509,0.83826 0.2656,0.75296 -0.04936,1.4971 -0.757422,1.78946 -0.666649,0.27527 -0.536769,0.27594 -1.19203,-0.007 z m 4.844816,0.0496 c -0.521948,-0.18894 -1.049267,-1.14491 -0.884677,-1.60381 0.237434,-0.662 0.784845,-1.06762 1.440818,-1.06762 1.542628,0 1.978771,2.04234 0.561149,2.62772 -0.312253,0.12893 -0.589362,0.22845 -0.615795,0.22113 -0.02644,-0.007 -0.252107,-0.0871 -0.501495,-0.17742 z m -31.26495,-0.14719 c -0.806999,-0.32132 -0.977701,-1.45805 -0.317009,-2.11099 0.868713,-0.85853 2.3076,-0.27636 2.3076,0.93364 0,1.03891 -0.940813,1.59537 -1.990591,1.17735 z m 35.853141,-9.02901 0.386843,-0.1024 -0.04613,-3.30459 -0.04613,-3.3046 H 73.219563 53.117102 l -0.04637,3.27081 c -0.03551,2.50416 0.0044,3.30267 0.170361,3.40675 0.248866,0.1561 39.199528,0.18945 39.786338,0.0341 z m -14.534451,-2.49497 c -0.844194,-0.83428 -0.393725,-2.20034 0.78716,-2.38708 1.378438,-0.21798 2.179167,1.50013 1.119113,2.40124 -0.616028,0.52368 -1.367706,0.51809 -1.906273,-0.0142 z m 4.770076,0 c -0.873677,-0.86342 -0.273209,-2.44889 0.927478,-2.44889 0.782107,0 1.448267,0.65826 1.448267,1.43107 0,1.24415 -1.497542,1.88573 -2.375745,1.01782 z m 4.770282,0.0287 c -0.636733,-0.54128 -0.636733,-1.55167 0,-2.09295 0.950414,-0.80792 2.375537,-0.18013 2.375537,1.04648 0,1.2266 -1.425123,1.85439 -2.375537,1.04647 z m -31.253494,-0.1205 c -0.365408,-0.36112 -0.449183,-1.16873 -0.173958,-1.67697 0.39786,-0.73469 1.994373,-0.73469 2.392232,0 0.536211,0.99016 -0.07175,2.01369 -1.196116,2.01369 -0.454293,0 -0.795012,-0.11226 -1.022158,-0.33672 z m 36.588309,-12.14385 0.04613,-3.30484 -0.472023,-0.0955 c -0.653392,-0.13222 -38.703531,-0.1415 -39.370873,-0.009 l -0.539453,0.10664 v 3.23394 c 0,1.77869 0.05141,3.28478 0.114271,3.34689 0.06284,0.0622 9.128121,0.0937 20.14505,0.0702 l 20.03078,-0.0428 z m -36.558614,0.81067 c -1.195302,-1.25742 0.529117,-3.0259 1.906468,-1.95517 0.599569,0.46607 0.626645,1.44764 0.05458,1.97877 -0.540313,0.50164 -1.472417,0.49043 -1.961052,-0.0236 z m 21.635699,0 c -0.419849,-0.44167 -0.490256,-1.37652 -0.138163,-1.8345 0.891758,-1.16 2.939967,-0.23282 2.5838,1.16961 -0.266866,1.05082 -1.706673,1.44226 -2.445637,0.66489 z m 4.772504,0.0464 c -0.460029,-0.42356 -0.51142,-1.51607 -0.09087,-1.93168 1.147635,-1.13419 3.049685,-0.0125 2.441085,1.43958 -0.117917,0.28133 -0.352163,0.58438 -0.520549,0.67344 -0.522342,0.27627 -1.430392,0.18627 -1.829669,-0.18134 z m 4.863364,0.13282 c -0.844677,-0.6339 -0.623452,-2.11046 0.367342,-2.45179 1.201956,-0.4141 2.285282,0.63393 1.870574,1.8096 -0.101474,0.28767 -0.324708,0.59719 -0.496089,0.68784 -0.436412,0.23082 -1.407337,0.20536 -1.741827,-0.0456 z m 11.914487,52.45986 c -0.0631,-0.0624 -0.11471,-1.76752 -0.11471,-3.78927 v -3.67589 h 12.098812 12.0988 l -0.0458,3.74605 -0.0458,3.74604 -11.93825,0.0432 c -6.56604,0.0237 -11.98986,-0.008 -12.052962,-0.0702 z M 26.540967,237.44802 c -0.797052,-0.43084 -0.76662,0.3184 -0.76662,-18.87372 0,-11.52491 0.06094,-18.2745 0.166764,-18.4699 0.347929,-0.6425 0.947669,-0.6801 10.846867,-0.6801 h 9.599911 v 2.35707 2.35706 l -7.793964,0.0125 c -4.28668,0.007 -8.138941,0.0636 -8.560581,0.12626 l -0.76662,0.11375 v 3.27546 3.27546 l 0.4259,0.11708 c 0.234244,0.0644 4.086505,0.12463 8.560581,0.13386 l 8.134684,0.0169 v 2.1887 2.1887 h -8.3337 c -4.583534,0 -8.454961,0.046 -8.603171,0.10217 -0.232836,0.0883 -0.269475,0.54367 -0.269475,3.34923 0,2.80556 0.03664,3.26093 0.269475,3.34922 0.14821,0.0562 4.019637,0.10217 8.603171,0.10217 h 8.3337 v 2.27132 2.27133 l -8.560583,0.0436 -8.560582,0.0436 -0.04612,3.30256 -0.04612,3.30255 0.642375,0.10492 c 0.353306,0.0577 4.22632,0.10572 8.606697,0.10676 l 7.964322,0.002 v 1.85197 1.85199 l -9.7531,-0.006 c -6.729816,-0.003 -9.858718,-0.0623 -10.093822,-0.18929 z m 73.510273,-1.65757 v -1.85198 l 8.0495,-0.002 c 4.42722,-9e-4 8.33856,-0.0491 8.69188,-0.10675 l 0.64236,-0.10492 -0.0461,-3.30255 -0.0462,-3.30256 -8.64576,-0.0436 -8.64575,-0.0436 v -2.27135 -2.27134 h 8.41887 c 4.63039,0 8.54014,-0.046 8.68835,-0.10217 0.23283,-0.0883 0.26947,-0.54366 0.26947,-3.34922 0,-2.80555 -0.0367,-3.26092 -0.26947,-3.34921 -0.14821,-0.0562 -4.05796,-0.10217 -8.68835,-0.10217 h -8.41887 v -2.1887 -2.18871 l 8.04951,-0.002 c 4.42721,-8.9e-4 8.33855,-0.0491 8.69186,-0.10676 l 0.64237,-0.10492 -0.0461,-3.29876 -0.0461,-3.29877 -0.80569,-0.13337 c -0.44313,-0.0734 -4.33373,-0.11295 -8.64581,-0.088 l -7.84012,0.0454 6e-5,-2.39916 4e-5,-2.39915 h 9.68509 c 9.98729,0 10.58385,0.0371 10.93204,0.68008 0.18364,0.33911 0.24324,36.30339 0.061,36.77287 -0.2909,0.74921 -0.51783,0.76518 -10.87391,0.76518 h -9.80411 z"
       id="path5335"
       inkscape:connector-curvature="0" />
  </g>
</svg>
