<?xml version="1.0" encoding="UTF-8" standalone="no"?>
<!-- Generator: Adobe Illustrator 22.0.1, SVG Export Plug-In . SVG Version: 6.00 Build 0)  -->

<svg
   xmlns:dc="http://purl.org/dc/elements/1.1/"
   xmlns:cc="http://creativecommons.org/ns#"
   xmlns:rdf="http://www.w3.org/1999/02/22-rdf-syntax-ns#"
   xmlns:svg="http://www.w3.org/2000/svg"
   xmlns="http://www.w3.org/2000/svg"
   xmlns:sodipodi="http://sodipodi.sourceforge.net/DTD/sodipodi-0.dtd"
   xmlns:inkscape="http://www.inkscape.org/namespaces/inkscape"
   version="1.1"
   id="Layer_1"
   x="0px"
   y="0px"
   viewBox="0 0 366.8 121.00001"
   xml:space="preserve"
   sodipodi:docname="GenesisCloud_logo_wip_all-white.svg"
   inkscape:version="0.92.2 (5c3e80d, 2017-08-06)"
   width="366.79999"
   height="121.00001"
   inkscape:export-filename="C:\Users\maxim\Google Drive\WebDev\templates\templated-theory\images\g152.png"
   inkscape:export-xdpi="96"
   inkscape:export-ydpi="96"><sodipodi:namedview
     pagecolor="#ffffff"
     bordercolor="#666666"
     borderopacity="1"
     objecttolerance="10"
     gridtolerance="10"
     guidetolerance="10"
     inkscape:pageopacity="0"
     inkscape:pageshadow="2"
     inkscape:window-width="3200"
     inkscape:window-height="1721"
     id="namedview181"
     showgrid="false"
     inkscape:zoom="2.1791745"
     inkscape:cx="23.619966"
     inkscape:cy="85.690943"
     inkscape:window-x="-9"
     inkscape:window-y="-9"
     inkscape:window-maximized="1"
     inkscape:current-layer="Layer_1"
     fit-margin-top="0"
     fit-margin-left="0"
     fit-margin-right="0"
     fit-margin-bottom="0"
     inkscape:pagecheckerboard="true" /><metadata
     id="metadata185"><rdf:RDF><cc:Work
         rdf:about=""><dc:format>image/svg+xml</dc:format><dc:type
           rdf:resource="http://purl.org/dc/dcmitype/StillImage" /><dc:title></dc:title></cc:Work></rdf:RDF></metadata><defs
     id="defs183" /><style
     type="text/css"
     id="style2">
	.st0{fill:#0D3151;}
	.st1{fill:#FFAB32;}
</style><g
     id="g152"
     transform="translate(-22.200001,-17.900001)"><g
       id="g52"><circle
         class="st0"
         cx="38.099998"
         cy="102"
         r="0.69999999"
         id="circle4"
         style="opacity:1;fill:#ffffff" /><circle
         class="st0"
         cx="43.599998"
         cy="113.4"
         r="1"
         id="circle6"
         style="opacity:1;fill:#ffffff" /><circle
         class="st0"
         cx="52.700001"
         cy="105.1"
         r="1"
         id="circle8"
         style="opacity:1;fill:#ffffff" /><circle
         class="st0"
         cx="66.400002"
         cy="103.6"
         r="1.3"
         id="circle10"
         style="opacity:1;fill:#ffffff" /><circle
         class="st0"
         cx="75.599998"
         cy="110.2"
         r="1.7"
         id="circle12"
         style="opacity:1;fill:#ffffff" /><circle
         class="st0"
         cx="86.699997"
         cy="112.5"
         r="2"
         id="circle14"
         style="opacity:1;fill:#ffffff" /><circle
         class="st0"
         cx="97.5"
         cy="112.2"
         r="2.3"
         id="circle16"
         style="opacity:1;fill:#ffffff" /><circle
         class="st0"
         cx="106.8"
         cy="103.2"
         r="2.8"
         id="circle18"
         style="opacity:1;fill:#ffffff" /><circle
         class="st0"
         cx="60.299999"
         cy="114.5"
         r="1.3"
         id="circle20"
         style="opacity:1;fill:#ffffff" /><circle
         class="st0"
         cx="70.5"
         cy="121.1"
         r="1.7"
         id="circle22"
         style="opacity:1;fill:#ffffff" /><circle
         class="st0"
         cx="82.099998"
         cy="124.3"
         r="2"
         id="circle24"
         style="opacity:1;fill:#ffffff" /><circle
         class="st0"
         cx="94.199997"
         cy="123.7"
         r="2.3"
         id="circle26"
         style="opacity:1;fill:#ffffff" /><circle
         class="st0"
         cx="105.5"
         cy="119.5"
         r="2.5999999"
         id="circle28"
         style="opacity:1;fill:#ffffff" /><circle
         class="st0"
         cx="115"
         cy="112.1"
         r="3"
         id="circle30"
         style="opacity:1;fill:#ffffff" /><circle
         class="st0"
         cx="121.7"
         cy="102"
         r="3.5"
         id="circle32"
         style="opacity:1;fill:#ffffff" /><circle
         class="st0"
         cx="51.799999"
         cy="123.1"
         r="1.3"
         id="circle34"
         style="opacity:1;fill:#ffffff" /><circle
         class="st0"
         cx="62.200001"
         cy="130.5"
         r="1.7"
         id="circle36"
         style="opacity:1;fill:#ffffff" /><circle
         class="st0"
         cx="74"
         cy="135.10001"
         r="2"
         id="circle38"
         style="opacity:1;fill:#ffffff" /><circle
         class="st0"
         cx="86.599998"
         cy="136.60001"
         r="2.3"
         id="circle40"
         style="opacity:1;fill:#ffffff" /><circle
         class="st0"
         cx="99.199997"
         cy="135"
         r="2.7"
         id="circle42"
         style="opacity:1;fill:#ffffff" /><circle
         class="st0"
         cx="111"
         cy="130.3"
         r="3"
         id="circle44"
         style="opacity:1;fill:#ffffff" /><circle
         class="st0"
         cx="121.3"
         cy="122.9"
         r="3.3"
         id="circle46"
         style="opacity:1;fill:#ffffff" /><circle
         class="st0"
         cx="129.5"
         cy="113.1"
         r="3.5999999"
         id="circle48"
         style="opacity:1;fill:#ffffff" /><circle
         class="st0"
         cx="134.89999"
         cy="101.6"
         r="4.3000002"
         id="circle50"
         style="opacity:1;fill:#ffffff" /></g><g
       id="g100"><circle
         class="st0"
         cx="136.7"
         cy="99.099998"
         r="1"
         id="circle54"
         style="opacity:1;fill:#ffffff" /><circle
         class="st0"
         cx="125.3"
         cy="94.599998"
         r="1"
         id="circle56"
         style="opacity:1;fill:#ffffff" /><circle
         class="st0"
         cx="117.9"
         cy="82.900002"
         r="1.3"
         id="circle58"
         style="opacity:1;fill:#ffffff" /><circle
         class="st0"
         cx="119.8"
         cy="71.800003"
         r="1.7"
         id="circle60"
         style="opacity:1;fill:#ffffff" /><circle
         class="st0"
         cx="117"
         cy="60.799999"
         r="2"
         id="circle62"
         style="opacity:1;fill:#ffffff" /><circle
         class="st0"
         cx="112"
         cy="51.200001"
         r="2.3"
         id="circle64"
         style="opacity:1;fill:#ffffff" /><circle
         class="st0"
         cx="99.800003"
         cy="46.799999"
         r="2.8"
         id="circle66"
         style="opacity:1;fill:#ffffff" /><circle
         class="st0"
         cx="130.39999"
         cy="83.599998"
         r="1.3"
         id="circle68"
         style="opacity:1;fill:#ffffff" /><circle
         class="st0"
         cx="131.8"
         cy="71.599998"
         r="1.7"
         id="circle70"
         style="opacity:1;fill:#ffffff" /><circle
         class="st0"
         cx="129.60001"
         cy="59.799999"
         r="2"
         id="circle72"
         style="opacity:1;fill:#ffffff" /><circle
         class="st0"
         cx="123.8"
         cy="49.099998"
         r="2.3"
         id="circle74"
         style="opacity:1;fill:#ffffff" /><circle
         class="st0"
         cx="115.1"
         cy="40.799999"
         r="2.5999999"
         id="circle76"
         style="opacity:1;fill:#ffffff" /><circle
         class="st0"
         cx="104.2"
         cy="35.599998"
         r="3"
         id="circle78"
         style="opacity:1;fill:#ffffff" /><circle
         class="st0"
         cx="92.199997"
         cy="33.900002"
         r="3.5"
         id="circle80"
         style="opacity:1;fill:#ffffff" /><circle
         class="st0"
         cx="141.89999"
         cy="87.5"
         r="1.3"
         id="circle82"
         style="opacity:1;fill:#ffffff" /><circle
         class="st0"
         cx="143.89999"
         cy="74.900002"
         r="1.7"
         id="circle84"
         style="opacity:1;fill:#ffffff" /><circle
         class="st0"
         cx="142.89999"
         cy="62.299999"
         r="2"
         id="circle86"
         style="opacity:1;fill:#ffffff" /><circle
         class="st0"
         cx="138.7"
         cy="50.299999"
         r="2.3"
         id="circle88"
         style="opacity:1;fill:#ffffff" /><circle
         class="st0"
         cx="131.7"
         cy="39.700001"
         r="2.7"
         id="circle90"
         style="opacity:1;fill:#ffffff" /><circle
         class="st0"
         cx="122.3"
         cy="31.1"
         r="3"
         id="circle92"
         style="opacity:1;fill:#ffffff" /><circle
         class="st0"
         cx="111.1"
         cy="25.1"
         r="3.3"
         id="circle94"
         style="opacity:1;fill:#ffffff" /><circle
         class="st0"
         cx="98.800003"
         cy="22.1"
         r="3.5999999"
         id="circle96"
         style="opacity:1;fill:#ffffff" /><circle
         class="st0"
         cx="86.099998"
         cy="22.200001"
         r="4.3000002"
         id="circle98"
         style="opacity:1;fill:#ffffff" /></g><g
       id="g150"><circle
         class="st0"
         cx="88.800003"
         cy="22.6"
         r="0.69999999"
         id="circle102"
         style="opacity:1;fill:#ffffff" /><circle
         class="st0"
         cx="76.199997"
         cy="21.1"
         r="1"
         id="circle104"
         style="opacity:1;fill:#ffffff" /><circle
         class="st0"
         cx="78.199997"
         cy="33.200001"
         r="1"
         id="circle106"
         style="opacity:1;fill:#ffffff" /><circle
         class="st0"
         cx="72"
         cy="45.5"
         r="1.3"
         id="circle108"
         style="opacity:1;fill:#ffffff" /><circle
         class="st0"
         cx="61.400002"
         cy="49.599998"
         r="1.7"
         id="circle110"
         style="opacity:1;fill:#ffffff" /><circle
         class="st0"
         cx="53.5"
         cy="57.700001"
         r="2"
         id="circle112"
         style="opacity:1;fill:#ffffff" /><circle
         class="st0"
         cx="47.799999"
         cy="66.900002"
         r="2.3"
         id="circle114"
         style="opacity:1;fill:#ffffff" /><circle
         class="st0"
         cx="50.200001"
         cy="79.5"
         r="2.8"
         id="circle116"
         style="opacity:1;fill:#ffffff" /><circle
         class="st0"
         cx="66.099998"
         cy="34.5"
         r="1.3"
         id="circle118"
         style="opacity:1;fill:#ffffff" /><circle
         class="st0"
         cx="55.099998"
         cy="39.400002"
         r="1.7"
         id="circle120"
         style="opacity:1;fill:#ffffff" /><circle
         class="st0"
         cx="46.099998"
         cy="47.400002"
         r="2"
         id="circle122"
         style="opacity:1;fill:#ffffff" /><circle
         class="st0"
         cx="39.900002"
         cy="57.799999"
         r="2.3"
         id="circle124"
         style="opacity:1;fill:#ffffff" /><circle
         class="st0"
         cx="37.299999"
         cy="69.599998"
         r="2.7"
         id="circle126"
         style="opacity:1;fill:#ffffff" /><circle
         class="st0"
         cx="38.299999"
         cy="81.599998"
         r="3"
         id="circle128"
         style="opacity:1;fill:#ffffff" /><circle
         class="st0"
         cx="43"
         cy="92.699997"
         r="3.5"
         id="circle130"
         style="opacity:1;fill:#ffffff" /><circle
         class="st0"
         cx="63.599998"
         cy="22.6"
         r="1.3"
         id="circle132"
         style="opacity:1;fill:#ffffff" /><circle
         class="st0"
         cx="51.700001"
         cy="27.299999"
         r="1.7"
         id="circle134"
         style="opacity:1;fill:#ffffff" /><circle
         class="st0"
         cx="41.400002"
         cy="34.700001"
         r="2"
         id="circle136"
         style="opacity:1;fill:#ffffff" /><circle
         class="st0"
         cx="33.200001"
         cy="44.400002"
         r="2.3"
         id="circle138"
         style="opacity:1;fill:#ffffff" /><circle
         class="st0"
         cx="27.700001"
         cy="55.900002"
         r="2.7"
         id="circle140"
         style="opacity:1;fill:#ffffff" /><circle
         class="st0"
         cx="25.200001"
         cy="68.300003"
         r="3"
         id="circle142"
         style="opacity:1;fill:#ffffff" /><circle
         class="st0"
         cx="25.799999"
         cy="81"
         r="3.3"
         id="circle144"
         style="opacity:1;fill:#ffffff" /><circle
         class="st0"
         cx="29.6"
         cy="93.199997"
         r="3.5999999"
         id="circle146"
         style="opacity:1;fill:#ffffff" /><circle
         class="st0"
         cx="36.200001"
         cy="104"
         r="4.3000002"
         id="circle148"
         style="opacity:1;fill:#ffffff" /></g></g><g
     id="g1294"
     transform="translate(-17.896685,29.827808)"><path
       class="st1"
       d="m 176,25.999999 9.9,-0.1 c 4.5,0 6.7,2.1 6.7,6.3 v 16.6 c -5.4,1.7 -11.1,2.6 -17.1,2.6 -3,0 -5.7,-0.5 -8,-1.5 -2.3,-1 -4.3,-2.5 -5.9,-4.4 -1.6,-1.9 -2.8,-4.2 -3.6,-7 -0.8,-2.8 -1.2,-5.9 -1.2,-9.4 0,-3.8 0.6,-7.2 1.7,-10 1.1,-2.8 2.6,-5.2 4.5,-7.1 1.9,-1.9 4,-3.3 6.5,-4.3 2.4,-0.9 5,-1.4 7.6,-1.4 5.5,0 10.6,1.5 15.4,4.5 0,0.7 -0.2,1.4 -0.5,2.1 -0.3,0.7 -0.6,1.4 -1,2 -0.4,0.7 -0.9,1.2 -1.4,1.8 -0.5,0.5 -1.1,1 -1.6,1.4 -3.5,-2.3 -7,-3.4 -10.6,-3.4 -6.9,0 -10.3,4.8 -10.3,14.4 0,9.6 3.5,14.3 10.5,14.3 1,0 1.9,0 2.8,-0.1 0.9,-0.1 1.8,-0.2 2.7,-0.4 v -4.2 c 0,-1 0,-1.8 0,-2.5 0,-0.7 0.1,-1.3 0.1,-1.8 H 180 c -1.8,0 -3.1,-0.3 -3.8,-1 -0.7,-0.7 -1,-1.8 -1,-3.3 0.1,-1.3 0.3,-2.6 0.8,-4.1 z"
       id="path154"
       inkscape:connector-curvature="0"
       style="opacity:1;fill:#ffffff" /><path
       class="st1"
       d="m 224.2,37.899999 h -16.4 c 0.1,1.9 0.6,3.3 1.4,4.4 0.9,1 2.3,1.6 4.3,1.6 1,0 2.2,-0.1 3.5,-0.4 1.3,-0.3 2.8,-0.8 4.6,-1.4 1.4,1.4 2.2,3.4 2.6,5.8 -3.4,2.4 -7.5,3.6 -12.4,3.6 -2.7,0 -4.9,-0.4 -6.7,-1.3 -1.8,-0.8 -3.2,-2 -4.4,-3.5 -1.1,-1.5 -1.9,-3.3 -2.4,-5.4 -0.5,-2.1 -0.7,-4.3 -0.7,-6.8 0,-2.4 0.3,-4.5 0.9,-6.5 0.6,-2 1.4,-3.7 2.6,-5.2 1.2,-1.5 2.6,-2.6 4.4,-3.5 1.8,-0.8 3.9,-1.3 6.3,-1.3 2,0 3.8,0.3 5.5,1 1.6,0.7 3,1.6 4.1,2.8 1.1,1.2 2,2.6 2.6,4.2 0.6,1.6 0.9,3.4 0.9,5.4 0.1,2.6 -0.2,4.8 -0.7,6.5 z m -16.5,-6.8 h 8.3 v -0.7 c 0,-1.6 -0.3,-2.8 -1,-3.9 -0.7,-1 -1.7,-1.5 -3.1,-1.5 -1.3,0 -2.3,0.5 -3,1.4 -0.7,1 -1.1,2.6 -1.2,4.7 z"
       id="path156"
       inkscape:connector-curvature="0"
       style="opacity:1;fill:#ffffff" /><path
       class="st1"
       d="m 258.1,29.699999 v 12.9 c 0,2.8 0.5,4.9 1.5,6.3 -1.6,1.4 -3.5,2.1 -5.7,2.1 -2.2,0 -3.7,-0.5 -4.5,-1.5 -0.8,-1 -1.2,-2.5 -1.2,-4.6 v -13.5 c 0,-1.4 -0.2,-2.5 -0.6,-3.2 -0.4,-0.7 -1.1,-1 -2.2,-1 -0.6,0 -1.3,0.2 -2.1,0.5 -0.8,0.3 -1.6,0.9 -2.5,1.6 v 21.1 c -0.7,0.1 -1.5,0.2 -2.3,0.3 -0.8,0.1 -1.7,0.1 -2.6,0.1 -0.9,0 -1.7,0 -2.6,-0.1 -0.8,-0.1 -1.6,-0.2 -2.3,-0.3 v -31.4 l 0.4,-0.4 h 3.7 c 2.6,0 4.3,1.3 5.2,3.8 2.9,-2.6 5.9,-3.9 8.8,-3.9 2.9,0 5.2,1 6.7,3.1 1.6,1.9 2.3,4.7 2.3,8.1 z"
       id="path158"
       inkscape:connector-curvature="0"
       style="opacity:1;fill:#ffffff" /><path
       class="st1"
       d="m 290.1,37.899999 h -16.4 c 0.1,1.9 0.6,3.3 1.4,4.4 0.9,1 2.3,1.6 4.3,1.6 1,0 2.2,-0.1 3.5,-0.4 1.3,-0.3 2.8,-0.8 4.6,-1.4 1.4,1.4 2.2,3.4 2.6,5.8 -3.4,2.4 -7.5,3.6 -12.4,3.6 -2.7,0 -4.9,-0.4 -6.7,-1.3 -1.8,-0.8 -3.2,-2 -4.4,-3.5 -1.1,-1.5 -1.9,-3.3 -2.4,-5.4 -0.5,-2.1 -0.7,-4.3 -0.7,-6.8 0,-2.4 0.3,-4.5 0.9,-6.5 0.6,-2 1.4,-3.7 2.6,-5.2 1.2,-1.5 2.6,-2.6 4.4,-3.5 1.8,-0.8 3.9,-1.3 6.3,-1.3 2,0 3.8,0.3 5.5,1 1.6,0.7 3,1.6 4.1,2.8 1.1,1.2 2,2.6 2.6,4.2 0.6,1.6 0.9,3.4 0.9,5.4 0.1,2.6 -0.2,4.8 -0.7,6.5 z m -16.5,-6.8 h 8.3 v -0.7 c 0,-1.6 -0.3,-2.8 -1,-3.9 -0.7,-1 -1.7,-1.5 -3.1,-1.5 -1.3,0 -2.3,0.5 -3,1.4 -0.7,1 -1.1,2.6 -1.2,4.7 z"
       id="path160"
       inkscape:connector-curvature="0"
       style="opacity:1;fill:#ffffff" /><path
       class="st1"
       d="m 294.4,48.399999 c 0,-1.1 0.3,-2.3 0.9,-3.6 0.5,-1.3 1.1,-2.3 1.9,-3.1 3.4,1.8 6.3,2.7 8.8,2.7 1.2,0 2.1,-0.2 2.7,-0.6 0.6,-0.4 0.9,-0.9 0.9,-1.6 0,-1.3 -1,-2.2 -2.9,-2.8 l -3.5,-1.3 c -5.3,-1.9 -7.9,-5.1 -7.9,-9.5 0,-3.2 1.1,-5.7 3.3,-7.6 2.2,-1.9 5.2,-2.8 8.9,-2.8 1.8,0 3.9,0.3 6.1,0.8 2.2,0.5 4.1,1.1 5.5,1.9 0.1,1.2 -0.1,2.5 -0.7,3.9 -0.5,1.4 -1.2,2.4 -2,3 -3.5,-1.6 -6.5,-2.4 -8.8,-2.4 -0.8,0 -1.5,0.2 -1.9,0.6 -0.4,0.4 -0.7,0.9 -0.7,1.5 0,1 0.8,1.8 2.4,2.4 l 3.9,1.4 c 5.6,2 8.4,5.4 8.4,10.2 0,3.2 -1.2,5.7 -3.5,7.5 -2.3,1.9 -5.6,2.8 -9.9,2.8 -4.3,0 -8.3,-1.4 -11.9,-3.4 z"
       id="path162"
       inkscape:connector-curvature="0"
       style="opacity:1;fill:#ffffff" /><path
       class="st1"
       d="m 336.6,26.299999 v 24.2 c -0.7,0.1 -1.5,0.2 -2.3,0.3 -0.8,0.1 -1.7,0.1 -2.6,0.1 -0.9,0 -1.8,0 -2.6,-0.1 -0.9,-0.1 -1.7,-0.2 -2.4,-0.3 v -20.9 c 0,-2.4 -1,-3.7 -3,-3.7 h -0.9 c -0.3,-0.8 -0.4,-1.9 -0.4,-3.3 0,-1.4 0.1,-2.6 0.4,-3.5 1.1,-0.1 2.1,-0.2 3,-0.2 0.9,-0.1 1.8,-0.1 2.5,-0.1 h 1.4 c 2.1,0 3.8,0.7 5,2 1.2,1.3 1.9,3.1 1.9,5.5 z m -11.1,-20 c 1.2,-0.7 2.8,-1 4.7,-1 2,0 3.5,0.3 4.6,1 0.5,1.1 0.8,2.4 0.8,3.7 0,1.3 -0.3,2.5 -0.8,3.7 -1.2,0.6 -2.8,0.9 -4.8,0.9 -2,0 -3.5,-0.3 -4.5,-0.9 -0.5,-1.1 -0.8,-2.4 -0.8,-3.7 0,-1.3 0.3,-2.6 0.8,-3.7 z"
       id="path164"
       inkscape:connector-curvature="0"
       style="opacity:1;fill:#ffffff" /><path
       class="st1"
       d="m 341.5,48.399999 c 0,-1.1 0.3,-2.3 0.9,-3.6 0.5,-1.3 1.1,-2.3 1.9,-3.1 3.4,1.8 6.3,2.7 8.8,2.7 1.2,0 2.1,-0.2 2.7,-0.6 0.6,-0.4 0.9,-0.9 0.9,-1.6 0,-1.3 -1,-2.2 -2.9,-2.8 l -3.5,-1.3 c -5.3,-1.9 -7.9,-5.1 -7.9,-9.5 0,-3.2 1.1,-5.7 3.3,-7.6 2.2,-1.9 5.2,-2.8 8.9,-2.8 1.9,0 3.9,0.3 6.1,0.8 2.2,0.5 4.1,1.1 5.5,1.9 0.1,1.2 -0.1,2.5 -0.7,3.9 -0.5,1.4 -1.2,2.4 -2,3 -3.5,-1.6 -6.5,-2.4 -8.8,-2.4 -0.8,0 -1.5,0.2 -1.9,0.6 -0.4,0.4 -0.7,0.9 -0.7,1.5 0,1 0.8,1.8 2.4,2.4 l 3.9,1.4 c 5.6,2 8.4,5.4 8.4,10.2 0,3.2 -1.2,5.7 -3.5,7.5 -2.3,1.9 -5.6,2.8 -9.9,2.8 -4.3,-0.3 -8.3,-1.4 -11.9,-3.4 z"
       id="path166"
       inkscape:connector-curvature="0"
       style="opacity:1;fill:#ffffff" /></g><g
     id="g1285"
     transform="translate(228.06801,-61.950063)"><path
       class="st1"
       d="m 181.9,83.799999 v -0.7 c 0,-6.2 -2.3,-9.3 -6.9,-9.3 -2.7,0 -4.6,1.2 -5.7,3.6 -1.2,2.4 -1.8,6 -1.8,10.7 0,4.7 0.7,8.1 2.2,10.4 1.5,2.300001 3.6,3.400001 6.4,3.400001 1.5,0 3.1,-0.3 4.9,-1 1.8,-0.7 3.7,-1.800001 5.8,-3.300001 1.1,0.7 2,1.7 2.9,2.900001 0.9,1.2 1.5,2.4 1.7,3.6 -1,0.9 -2.1,1.8 -3.4,2.6 -1.3,0.8 -2.7,1.5 -4.2,2.1 -1.5,0.6 -3.1,1.1 -4.7,1.4 -1.6,0.4 -3.3,0.5 -4.9,0.5 -3.2,0 -6,-0.6 -8.2,-1.9 -2.2,-1.2 -4,-2.9 -5.4,-5 -1.4,-2.1 -2.4,-4.400001 -3,-7.100001 -0.6,-2.7 -0.9,-5.5 -0.9,-8.4 0,-3.8 0.5,-7.1 1.4,-9.9 0.9,-2.8 2.2,-5.2 3.9,-7.1 1.6,-1.9 3.5,-3.3 5.7,-4.3 2.2,-0.9 4.5,-1.4 7,-1.4 2.5,0 4.8,0.3 6.9,1 2.1,0.7 3.8,1.6 5.3,2.8 1.5,1.2 2.6,2.6 3.3,4.2 0.8,1.6 1.2,3.3 1.2,5.2 0,3.7 -1.9,5.6 -5.7,5.6 -1.1,0 -2.4,-0.2 -3.8,-0.6 z"
       id="path168"
       inkscape:connector-curvature="0"
       style="opacity:1;fill:#ffffff" /><path
       class="st1"
       d="m 209.1,102.5 h 1.7 c 0.5,1.4 0.8,2.8 0.8,4.2 0,1.4 -0.1,2.3 -0.2,2.7 -2.5,0.4 -4.8,0.6 -6.8,0.6 -2.9,0 -4.9,-0.7 -6.1,-2.1 -1.2,-1.4 -1.8,-3.6 -1.8,-6.7 V 63.699999 l 0.4,-0.4 h 3.9 c 2,0 3.4,0.4 4.2,1.3 0.8,0.9 1.2,2.4 1.2,4.6 v 30.3 C 206.3,101.5 207.2,102.5 209.1,102.5 Z"
       id="path170"
       inkscape:connector-curvature="0"
       style="opacity:1;fill:#ffffff" /><path
       class="st1"
       d="m 238.6,80.999999 c 3,3 4.5,7.4 4.5,13 0,2.5 -0.3,4.8 -1,6.900001 -0.7,2.1 -1.6,3.8 -2.8,5.3 -1.2,1.5 -2.8,2.6 -4.6,3.3 -1.8,0.8 -3.9,1.2 -6.3,1.2 -2.4,0 -4.4,-0.4 -6.2,-1.2 -1.8,-0.8 -3.3,-1.9 -4.5,-3.4 -1.2,-1.5 -2.2,-3.2 -2.8,-5.3 -0.6,-2.100001 -0.9,-4.300001 -0.9,-6.800001 0,-2.5 0.3,-4.8 0.9,-6.9 0.6,-2 1.6,-3.8 2.8,-5.3 1.2,-1.5 2.7,-2.6 4.5,-3.4 1.8,-0.8 3.9,-1.2 6.2,-1.2 4.3,0.1 7.7,1.4 10.2,3.8 z m -10,3.7 c -0.9,0 -1.7,0.2 -2.3,0.7 -0.6,0.4 -1,1 -1.4,1.8 -0.3,0.8 -0.6,1.6 -0.7,2.6 -0.1,1 -0.2,2.1 -0.2,3.2 0,1.8 0.1,3.3 0.2,4.6 0.1,1.3 0.3,2.4 0.6,3.200001 0.3,0.9 0.8,1.5 1.3,1.9 0.6,0.4 1.3,0.6 2.3,0.6 1.9,0 3.1,-0.8 3.7,-2.4 0.6,-1.600001 0.9,-3.900001 0.9,-6.900001 0,-3 -0.3,-5.3 -0.9,-6.9 -0.6,-1.6 -1.8,-2.4 -3.5,-2.4 z"
       id="path172"
       inkscape:connector-curvature="0"
       style="opacity:1;fill:#ffffff" /><path
       class="st1"
       d="m 248.7,99.099999 v -12.9 c 0,-2.7 -0.5,-4.8 -1.5,-6.3 1.6,-1.4 3.5,-2.1 5.7,-2.1 2.2,0 3.7,0.5 4.5,1.5 0.8,1 1.2,2.5 1.2,4.6 v 13.4 c 0,1.5 0.2,2.5 0.5,3.200001 0.3,0.7 1.2,1 2.7,1 1.4,0 2.8,-0.7 4.2,-2.100001 v -21.1 c 1.4,-0.3 3,-0.4 4.9,-0.4 1.9,0 3.5,0.1 5,0.4 V 100.8 c 0,2.3 0.6,3.8 1.8,4.6 -0.2,0.8 -0.6,1.8 -1.2,2.7 -0.6,1 -1.2,1.7 -1.8,2.2 -3.5,-0.1 -5.9,-1.6 -7.5,-4.4 -3.3,3 -6.5,4.5 -9.4,4.5 -2.9,0 -5.2,-1 -6.7,-3.1 -1.7,-2.1 -2.4,-4.8 -2.4,-8.200001 z"
       id="path174"
       inkscape:connector-curvature="0"
       style="opacity:1;fill:#ffffff" /><path
       class="st1"
       d="m 294.4,77.599999 c 2,0 4,0.5 5.9,1.4 v -15.3 l 0.4,-0.4 h 3.9 c 2,0 3.4,0.4 4.2,1.3 0.8,0.9 1.2,2.4 1.2,4.6 V 100.6 c 0,2.2 0.6,3.7 1.8,4.5 -0.2,0.9 -0.6,1.8 -1.2,2.8 -0.6,1 -1.2,1.7 -1.8,2.2 -3.1,-0.1 -5.3,-1.3 -6.8,-3.5 -2.5,2.7 -5.6,4 -9.1,4 -3.5,0 -6.3,-1.5 -8.1,-4.4 -1.9,-2.9 -2.8,-7.000001 -2.8,-12.100001 0,-2.5 0.3,-4.8 1,-6.9 0.7,-2 1.5,-3.8 2.7,-5.2 1.1,-1.4 2.5,-2.5 4,-3.3 1.3,-0.7 2.9,-1.1 4.7,-1.1 z M 295.6,102.8 c 1.7,0 3.3,-0.8 4.6,-2.5 V 86.499999 c -1.7,-1 -3.1,-1.5 -4.1,-1.5 -2.9,0 -4.3,3.2 -4.3,9.5 0,5.5 1.3,8.300001 3.8,8.300001 z"
       id="path176"
       inkscape:connector-curvature="0"
       style="opacity:1;fill:#ffffff" /></g></svg>