<?xml version="1.0" encoding="UTF-8" standalone="no"?>
<!-- Generator: Adobe Illustrator 22.0.1, SVG Export Plug-In . SVG Version: 6.00 Build 0)  -->

<svg
   xmlns:dc="http://purl.org/dc/elements/1.1/"
   xmlns:cc="http://creativecommons.org/ns#"
   xmlns:rdf="http://www.w3.org/1999/02/22-rdf-syntax-ns#"
   xmlns:svg="http://www.w3.org/2000/svg"
   xmlns="http://www.w3.org/2000/svg"
   xmlns:sodipodi="http://sodipodi.sourceforge.net/DTD/sodipodi-0.dtd"
   xmlns:inkscape="http://www.inkscape.org/namespaces/inkscape"
   version="1.1"
   id="Layer_1"
   x="0px"
   y="0px"
   viewBox="0 0 440 158"
   style="enable-background:new 0 0 440 158;"
   xml:space="preserve"
   sodipodi:docname="GenesisCloud_logo_wip.svg"
   inkscape:version="0.92.2 (5c3e80d, 2017-08-06)"><metadata
     id="metadata185"><rdf:RDF><cc:Work
         rdf:about=""><dc:format>image/svg+xml</dc:format><dc:type
           rdf:resource="http://purl.org/dc/dcmitype/StillImage" /><dc:title></dc:title></cc:Work></rdf:RDF></metadata><defs
     id="defs183" /><sodipodi:namedview
     pagecolor="#ffffff"
     bordercolor="#666666"
     borderopacity="1"
     objecttolerance="10"
     gridtolerance="10"
     guidetolerance="10"
     inkscape:pageopacity="0"
     inkscape:pageshadow="2"
     inkscape:window-width="3200"
     inkscape:window-height="1721"
     id="namedview181"
     showgrid="false"
     inkscape:zoom="6.1636364"
     inkscape:cx="93.752366"
     inkscape:cy="107.37017"
     inkscape:window-x="-9"
     inkscape:window-y="-9"
     inkscape:window-maximized="1"
     inkscape:current-layer="Layer_1" /><style
     type="text/css"
     id="style2">
	.st0{fill:#0D3151;}
	.st1{fill:#FFAB32;}
</style><g
     id="g152"><g
       id="g52"><circle
         class="st0"
         cx="38.099998"
         cy="102"
         r="0.69999999"
         id="circle4"
         style="fill:#0d3151" /><circle
         class="st0"
         cx="43.599998"
         cy="113.4"
         r="1"
         id="circle6"
         style="fill:#0d3151" /><circle
         class="st0"
         cx="52.700001"
         cy="105.1"
         r="1"
         id="circle8"
         style="fill:#0d3151" /><circle
         class="st0"
         cx="66.400002"
         cy="103.6"
         r="1.3"
         id="circle10"
         style="fill:#0d3151" /><circle
         class="st0"
         cx="75.599998"
         cy="110.2"
         r="1.7"
         id="circle12"
         style="fill:#0d3151" /><circle
         class="st0"
         cx="86.699997"
         cy="112.5"
         r="2"
         id="circle14"
         style="fill:#0d3151" /><circle
         class="st0"
         cx="97.5"
         cy="112.2"
         r="2.3"
         id="circle16"
         style="fill:#0d3151" /><circle
         class="st0"
         cx="106.8"
         cy="103.2"
         r="2.8"
         id="circle18"
         style="fill:#0d3151" /><circle
         class="st0"
         cx="60.299999"
         cy="114.5"
         r="1.3"
         id="circle20"
         style="fill:#0d3151" /><circle
         class="st0"
         cx="70.5"
         cy="121.1"
         r="1.7"
         id="circle22"
         style="fill:#0d3151" /><circle
         class="st0"
         cx="82.099998"
         cy="124.3"
         r="2"
         id="circle24"
         style="fill:#0d3151" /><circle
         class="st0"
         cx="94.199997"
         cy="123.7"
         r="2.3"
         id="circle26"
         style="fill:#0d3151" /><circle
         class="st0"
         cx="105.5"
         cy="119.5"
         r="2.5999999"
         id="circle28"
         style="fill:#0d3151" /><circle
         class="st0"
         cx="115"
         cy="112.1"
         r="3"
         id="circle30"
         style="fill:#0d3151" /><circle
         class="st0"
         cx="121.7"
         cy="102"
         r="3.5"
         id="circle32"
         style="fill:#0d3151" /><circle
         class="st0"
         cx="51.799999"
         cy="123.1"
         r="1.3"
         id="circle34"
         style="fill:#0d3151" /><circle
         class="st0"
         cx="62.200001"
         cy="130.5"
         r="1.7"
         id="circle36"
         style="fill:#0d3151" /><circle
         class="st0"
         cx="74"
         cy="135.10001"
         r="2"
         id="circle38"
         style="fill:#0d3151" /><circle
         class="st0"
         cx="86.599998"
         cy="136.60001"
         r="2.3"
         id="circle40"
         style="fill:#0d3151" /><circle
         class="st0"
         cx="99.199997"
         cy="135"
         r="2.7"
         id="circle42"
         style="fill:#0d3151" /><circle
         class="st0"
         cx="111"
         cy="130.3"
         r="3"
         id="circle44"
         style="fill:#0d3151" /><circle
         class="st0"
         cx="121.3"
         cy="122.9"
         r="3.3"
         id="circle46"
         style="fill:#0d3151" /><circle
         class="st0"
         cx="129.5"
         cy="113.1"
         r="3.5999999"
         id="circle48"
         style="fill:#0d3151" /><circle
         class="st0"
         cx="134.89999"
         cy="101.6"
         r="4.3000002"
         id="circle50"
         style="fill:#0d3151" /></g><g
       id="g100"><circle
         class="st0"
         cx="136.7"
         cy="99.099998"
         r="1"
         id="circle54"
         style="fill:#0d3151" /><circle
         class="st0"
         cx="125.3"
         cy="94.599998"
         r="1"
         id="circle56"
         style="fill:#0d3151" /><circle
         class="st0"
         cx="117.9"
         cy="82.900002"
         r="1.3"
         id="circle58"
         style="fill:#0d3151" /><circle
         class="st0"
         cx="119.8"
         cy="71.800003"
         r="1.7"
         id="circle60"
         style="fill:#0d3151" /><circle
         class="st0"
         cx="117"
         cy="60.799999"
         r="2"
         id="circle62"
         style="fill:#0d3151" /><circle
         class="st0"
         cx="112"
         cy="51.200001"
         r="2.3"
         id="circle64"
         style="fill:#0d3151" /><circle
         class="st0"
         cx="99.800003"
         cy="46.799999"
         r="2.8"
         id="circle66"
         style="fill:#0d3151" /><circle
         class="st0"
         cx="130.39999"
         cy="83.599998"
         r="1.3"
         id="circle68"
         style="fill:#0d3151" /><circle
         class="st0"
         cx="131.8"
         cy="71.599998"
         r="1.7"
         id="circle70"
         style="fill:#0d3151" /><circle
         class="st0"
         cx="129.60001"
         cy="59.799999"
         r="2"
         id="circle72"
         style="fill:#0d3151" /><circle
         class="st0"
         cx="123.8"
         cy="49.099998"
         r="2.3"
         id="circle74"
         style="fill:#0d3151" /><circle
         class="st0"
         cx="115.1"
         cy="40.799999"
         r="2.5999999"
         id="circle76"
         style="fill:#0d3151" /><circle
         class="st0"
         cx="104.2"
         cy="35.599998"
         r="3"
         id="circle78"
         style="fill:#0d3151" /><circle
         class="st0"
         cx="92.199997"
         cy="33.900002"
         r="3.5"
         id="circle80"
         style="fill:#0d3151" /><circle
         class="st0"
         cx="141.89999"
         cy="87.5"
         r="1.3"
         id="circle82"
         style="fill:#0d3151" /><circle
         class="st0"
         cx="143.89999"
         cy="74.900002"
         r="1.7"
         id="circle84"
         style="fill:#0d3151" /><circle
         class="st0"
         cx="142.89999"
         cy="62.299999"
         r="2"
         id="circle86"
         style="fill:#0d3151" /><circle
         class="st0"
         cx="138.7"
         cy="50.299999"
         r="2.3"
         id="circle88"
         style="fill:#0d3151" /><circle
         class="st0"
         cx="131.7"
         cy="39.700001"
         r="2.7"
         id="circle90"
         style="fill:#0d3151" /><circle
         class="st0"
         cx="122.3"
         cy="31.1"
         r="3"
         id="circle92"
         style="fill:#0d3151" /><circle
         class="st0"
         cx="111.1"
         cy="25.1"
         r="3.3"
         id="circle94"
         style="fill:#0d3151" /><circle
         class="st0"
         cx="98.800003"
         cy="22.1"
         r="3.5999999"
         id="circle96"
         style="fill:#0d3151" /><circle
         class="st0"
         cx="86.099998"
         cy="22.200001"
         r="4.3000002"
         id="circle98"
         style="fill:#0d3151" /></g><g
       id="g150"><circle
         class="st0"
         cx="88.800003"
         cy="22.6"
         r="0.69999999"
         id="circle102"
         style="fill:#0d3151" /><circle
         class="st0"
         cx="76.199997"
         cy="21.1"
         r="1"
         id="circle104"
         style="fill:#0d3151" /><circle
         class="st0"
         cx="78.199997"
         cy="33.200001"
         r="1"
         id="circle106"
         style="fill:#0d3151" /><circle
         class="st0"
         cx="72"
         cy="45.5"
         r="1.3"
         id="circle108"
         style="fill:#0d3151" /><circle
         class="st0"
         cx="61.400002"
         cy="49.599998"
         r="1.7"
         id="circle110"
         style="fill:#0d3151" /><circle
         class="st0"
         cx="53.5"
         cy="57.700001"
         r="2"
         id="circle112"
         style="fill:#0d3151" /><circle
         class="st0"
         cx="47.799999"
         cy="66.900002"
         r="2.3"
         id="circle114"
         style="fill:#0d3151" /><circle
         class="st0"
         cx="50.200001"
         cy="79.5"
         r="2.8"
         id="circle116"
         style="fill:#0d3151" /><circle
         class="st0"
         cx="66.099998"
         cy="34.5"
         r="1.3"
         id="circle118"
         style="fill:#0d3151" /><circle
         class="st0"
         cx="55.099998"
         cy="39.400002"
         r="1.7"
         id="circle120"
         style="fill:#0d3151" /><circle
         class="st0"
         cx="46.099998"
         cy="47.400002"
         r="2"
         id="circle122"
         style="fill:#0d3151" /><circle
         class="st0"
         cx="39.900002"
         cy="57.799999"
         r="2.3"
         id="circle124"
         style="fill:#0d3151" /><circle
         class="st0"
         cx="37.299999"
         cy="69.599998"
         r="2.7"
         id="circle126"
         style="fill:#0d3151" /><circle
         class="st0"
         cx="38.299999"
         cy="81.599998"
         r="3"
         id="circle128"
         style="fill:#0d3151" /><circle
         class="st0"
         cx="43"
         cy="92.699997"
         r="3.5"
         id="circle130"
         style="fill:#0d3151" /><circle
         class="st0"
         cx="63.599998"
         cy="22.6"
         r="1.3"
         id="circle132"
         style="fill:#0d3151" /><circle
         class="st0"
         cx="51.700001"
         cy="27.299999"
         r="1.7"
         id="circle134"
         style="fill:#0d3151" /><circle
         class="st0"
         cx="41.400002"
         cy="34.700001"
         r="2"
         id="circle136"
         style="fill:#0d3151" /><circle
         class="st0"
         cx="33.200001"
         cy="44.400002"
         r="2.3"
         id="circle138"
         style="fill:#0d3151" /><circle
         class="st0"
         cx="27.700001"
         cy="55.900002"
         r="2.7"
         id="circle140"
         style="fill:#0d3151" /><circle
         class="st0"
         cx="25.200001"
         cy="68.300003"
         r="3"
         id="circle142"
         style="fill:#0d3151" /><circle
         class="st0"
         cx="25.799999"
         cy="81"
         r="3.3"
         id="circle144"
         style="fill:#0d3151" /><circle
         class="st0"
         cx="29.6"
         cy="93.199997"
         r="3.5999999"
         id="circle146"
         style="fill:#0d3151" /><circle
         class="st0"
         cx="36.200001"
         cy="104"
         r="4.3000002"
         id="circle148"
         style="fill:#0d3151" /></g></g><g
     id="g178"><path
       class="st1"
       d="M198.2,43.9l9.9-0.1c4.5,0,6.7,2.1,6.7,6.3v16.6c-5.4,1.7-11.1,2.6-17.1,2.6c-3,0-5.7-0.5-8-1.5   c-2.3-1-4.3-2.5-5.9-4.4c-1.6-1.9-2.8-4.2-3.6-7c-0.8-2.8-1.2-5.9-1.2-9.4c0-3.8,0.6-7.2,1.7-10c1.1-2.8,2.6-5.2,4.5-7.1   c1.9-1.9,4-3.3,6.5-4.3c2.4-0.9,5-1.4,7.6-1.4c5.5,0,10.6,1.5,15.4,4.5c0,0.7-0.2,1.4-0.5,2.1c-0.3,0.7-0.6,1.4-1,2   c-0.4,0.7-0.9,1.2-1.4,1.8c-0.5,0.5-1.1,1-1.6,1.4c-3.5-2.3-7-3.4-10.6-3.4c-6.9,0-10.3,4.8-10.3,14.4c0,9.6,3.5,14.3,10.5,14.3   c1,0,1.9,0,2.8-0.1c0.9-0.1,1.8-0.2,2.7-0.4v-4.2c0-1,0-1.8,0-2.5c0-0.7,0.1-1.3,0.1-1.8h-3.2c-1.8,0-3.1-0.3-3.8-1s-1-1.8-1-3.3   C197.5,46.7,197.7,45.4,198.2,43.9z"
       id="path154" /><path
       class="st1"
       d="M246.4,55.8H230c0.1,1.9,0.6,3.3,1.4,4.4c0.9,1,2.3,1.6,4.3,1.6c1,0,2.2-0.1,3.5-0.4c1.3-0.3,2.8-0.8,4.6-1.4   c1.4,1.4,2.2,3.4,2.6,5.8c-3.4,2.4-7.5,3.6-12.4,3.6c-2.7,0-4.9-0.4-6.7-1.3c-1.8-0.8-3.2-2-4.4-3.5c-1.1-1.5-1.9-3.3-2.4-5.4   c-0.5-2.1-0.7-4.3-0.7-6.8c0-2.4,0.3-4.5,0.9-6.5c0.6-2,1.4-3.7,2.6-5.2c1.2-1.5,2.6-2.6,4.4-3.5c1.8-0.8,3.9-1.3,6.3-1.3   c2,0,3.8,0.3,5.5,1c1.6,0.7,3,1.6,4.1,2.8c1.1,1.2,2,2.6,2.6,4.2c0.6,1.6,0.9,3.4,0.9,5.4C247.2,51.9,246.9,54.1,246.4,55.8z    M229.9,49h8.3v-0.7c0-1.6-0.3-2.8-1-3.9c-0.7-1-1.7-1.5-3.1-1.5c-1.3,0-2.3,0.5-3,1.4C230.4,45.3,230,46.9,229.9,49z"
       id="path156" /><path
       class="st1"
       d="M280.3,47.6v12.9c0,2.8,0.5,4.9,1.5,6.3c-1.6,1.4-3.5,2.1-5.7,2.1c-2.2,0-3.7-0.5-4.5-1.5   c-0.8-1-1.2-2.5-1.2-4.6V49.3c0-1.4-0.2-2.5-0.6-3.2c-0.4-0.7-1.1-1-2.2-1c-0.6,0-1.3,0.2-2.1,0.5c-0.8,0.3-1.6,0.9-2.5,1.6v21.1   c-0.7,0.1-1.5,0.2-2.3,0.3s-1.7,0.1-2.6,0.1s-1.7,0-2.6-0.1c-0.8-0.1-1.6-0.2-2.3-0.3V36.9l0.4-0.4h3.7c2.6,0,4.3,1.3,5.2,3.8   c2.9-2.6,5.9-3.9,8.8-3.9c2.9,0,5.2,1,6.7,3.1C279.6,41.4,280.3,44.2,280.3,47.6z"
       id="path158" /><path
       class="st1"
       d="M312.3,55.8h-16.4c0.1,1.9,0.6,3.3,1.4,4.4c0.9,1,2.3,1.6,4.3,1.6c1,0,2.2-0.1,3.5-0.4   c1.3-0.3,2.8-0.8,4.6-1.4c1.4,1.4,2.2,3.4,2.6,5.8c-3.4,2.4-7.5,3.6-12.4,3.6c-2.7,0-4.9-0.4-6.7-1.3c-1.8-0.8-3.2-2-4.4-3.5   c-1.1-1.5-1.9-3.3-2.4-5.4c-0.5-2.1-0.7-4.3-0.7-6.8c0-2.4,0.3-4.5,0.9-6.5c0.6-2,1.4-3.7,2.6-5.2c1.2-1.5,2.6-2.6,4.4-3.5   c1.8-0.8,3.9-1.3,6.3-1.3c2,0,3.8,0.3,5.5,1c1.6,0.7,3,1.6,4.1,2.8c1.1,1.2,2,2.6,2.6,4.2c0.6,1.6,0.9,3.4,0.9,5.4   C313.1,51.9,312.8,54.1,312.3,55.8z M295.8,49h8.3v-0.7c0-1.6-0.3-2.8-1-3.9c-0.7-1-1.7-1.5-3.1-1.5c-1.3,0-2.3,0.5-3,1.4   C296.3,45.3,295.9,46.9,295.8,49z"
       id="path160" /><path
       class="st1"
       d="M316.6,66.3c0-1.1,0.3-2.3,0.9-3.6c0.5-1.3,1.1-2.3,1.9-3.1c3.4,1.8,6.3,2.7,8.8,2.7c1.2,0,2.1-0.2,2.7-0.6   c0.6-0.4,0.9-0.9,0.9-1.6c0-1.3-1-2.2-2.9-2.8l-3.5-1.3c-5.3-1.9-7.9-5.1-7.9-9.5c0-3.2,1.1-5.7,3.3-7.6c2.2-1.9,5.2-2.8,8.9-2.8   c1.8,0,3.9,0.3,6.1,0.8c2.2,0.5,4.1,1.1,5.5,1.9c0.1,1.2-0.1,2.5-0.7,3.9c-0.5,1.4-1.2,2.4-2,3c-3.5-1.6-6.5-2.4-8.8-2.4   c-0.8,0-1.5,0.2-1.9,0.6c-0.4,0.4-0.7,0.9-0.7,1.5c0,1,0.8,1.8,2.4,2.4l3.9,1.4c5.6,2,8.4,5.4,8.4,10.2c0,3.2-1.2,5.7-3.5,7.5   c-2.3,1.9-5.6,2.8-9.9,2.8S320.2,68.3,316.6,66.3z"
       id="path162" /><path
       class="st1"
       d="M358.8,44.2v24.2c-0.7,0.1-1.5,0.2-2.3,0.3c-0.8,0.1-1.7,0.1-2.6,0.1c-0.9,0-1.8,0-2.6-0.1   c-0.9-0.1-1.7-0.2-2.4-0.3V47.5c0-2.4-1-3.7-3-3.7h-0.9c-0.3-0.8-0.4-1.9-0.4-3.3c0-1.4,0.1-2.6,0.4-3.5c1.1-0.1,2.1-0.2,3-0.2   c0.9-0.1,1.8-0.1,2.5-0.1h1.4c2.1,0,3.8,0.7,5,2S358.8,41.8,358.8,44.2z M347.7,24.2c1.2-0.7,2.8-1,4.7-1c2,0,3.5,0.3,4.6,1   c0.5,1.1,0.8,2.4,0.8,3.7c0,1.3-0.3,2.5-0.8,3.7c-1.2,0.6-2.8,0.9-4.8,0.9c-2,0-3.5-0.3-4.5-0.9c-0.5-1.1-0.8-2.4-0.8-3.7   C346.9,26.6,347.2,25.3,347.7,24.2z"
       id="path164" /><path
       class="st1"
       d="M363.7,66.3c0-1.1,0.3-2.3,0.9-3.6c0.5-1.3,1.1-2.3,1.9-3.1c3.4,1.8,6.3,2.7,8.8,2.7c1.2,0,2.1-0.2,2.7-0.6   c0.6-0.4,0.9-0.9,0.9-1.6c0-1.3-1-2.2-2.9-2.8l-3.5-1.3c-5.3-1.9-7.9-5.1-7.9-9.5c0-3.2,1.1-5.7,3.3-7.6c2.2-1.9,5.2-2.8,8.9-2.8   c1.9,0,3.9,0.3,6.1,0.8c2.2,0.5,4.1,1.1,5.5,1.9c0.1,1.2-0.1,2.5-0.7,3.9c-0.5,1.4-1.2,2.4-2,3c-3.5-1.6-6.5-2.4-8.8-2.4   c-0.8,0-1.5,0.2-1.9,0.6c-0.4,0.4-0.7,0.9-0.7,1.5c0,1,0.8,1.8,2.4,2.4l3.9,1.4c5.6,2,8.4,5.4,8.4,10.2c0,3.2-1.2,5.7-3.5,7.5   c-2.3,1.9-5.6,2.8-9.9,2.8C371.3,69.4,367.3,68.3,363.7,66.3z"
       id="path166" /><path
       class="st1"
       d="M204.1,101.7V101c0-6.2-2.3-9.3-6.9-9.3c-2.7,0-4.6,1.2-5.7,3.6c-1.2,2.4-1.8,6-1.8,10.7   c0,4.7,0.7,8.1,2.2,10.4c1.5,2.3,3.6,3.4,6.4,3.4c1.5,0,3.1-0.3,4.9-1c1.8-0.7,3.7-1.8,5.8-3.3c1.1,0.7,2,1.7,2.9,2.9   c0.9,1.2,1.5,2.4,1.7,3.6c-1,0.9-2.1,1.8-3.4,2.6c-1.3,0.8-2.7,1.5-4.2,2.1c-1.5,0.6-3.1,1.1-4.7,1.4c-1.6,0.4-3.3,0.5-4.9,0.5   c-3.2,0-6-0.6-8.2-1.9c-2.2-1.2-4-2.9-5.4-5c-1.4-2.1-2.4-4.4-3-7.1c-0.6-2.7-0.9-5.5-0.9-8.4c0-3.8,0.5-7.1,1.4-9.9   c0.9-2.8,2.2-5.2,3.9-7.1c1.6-1.9,3.5-3.3,5.7-4.3c2.2-0.9,4.5-1.4,7-1.4c2.5,0,4.8,0.3,6.9,1c2.1,0.7,3.8,1.6,5.3,2.8   s2.6,2.6,3.3,4.2c0.8,1.6,1.2,3.3,1.2,5.2c0,3.7-1.9,5.6-5.7,5.6C206.8,102.3,205.5,102.1,204.1,101.7z"
       id="path168" /><path
       class="st1"
       d="M231.3,120.4h1.7c0.5,1.4,0.8,2.8,0.8,4.2c0,1.4-0.1,2.3-0.2,2.7c-2.5,0.4-4.8,0.6-6.8,0.6   c-2.9,0-4.9-0.7-6.1-2.1s-1.8-3.6-1.8-6.7V81.6l0.4-0.4h3.9c2,0,3.4,0.4,4.2,1.3c0.8,0.9,1.2,2.4,1.2,4.6v30.3   C228.5,119.4,229.4,120.4,231.3,120.4z"
       id="path170" /><path
       class="st1"
       d="M260.8,98.9c3,3,4.5,7.4,4.5,13c0,2.5-0.3,4.8-1,6.9c-0.7,2.1-1.6,3.8-2.8,5.3c-1.2,1.5-2.8,2.6-4.6,3.3   c-1.8,0.8-3.9,1.2-6.3,1.2c-2.4,0-4.4-0.4-6.2-1.2c-1.8-0.8-3.3-1.9-4.5-3.4c-1.2-1.5-2.2-3.2-2.8-5.3c-0.6-2.1-0.9-4.3-0.9-6.8   c0-2.5,0.3-4.8,0.9-6.9c0.6-2,1.6-3.8,2.8-5.3c1.2-1.5,2.7-2.6,4.5-3.4c1.8-0.8,3.9-1.2,6.2-1.2C254.9,95.2,258.3,96.5,260.8,98.9z    M250.8,102.6c-0.9,0-1.7,0.2-2.3,0.7c-0.6,0.4-1,1-1.4,1.8c-0.3,0.8-0.6,1.6-0.7,2.6c-0.1,1-0.2,2.1-0.2,3.2   c0,1.8,0.1,3.3,0.2,4.6c0.1,1.3,0.3,2.4,0.6,3.2c0.3,0.9,0.8,1.5,1.3,1.9c0.6,0.4,1.3,0.6,2.3,0.6c1.9,0,3.1-0.8,3.7-2.4   c0.6-1.6,0.9-3.9,0.9-6.9c0-3-0.3-5.3-0.9-6.9C253.7,103.4,252.5,102.6,250.8,102.6z"
       id="path172" /><path
       class="st1"
       d="M270.9,117v-12.9c0-2.7-0.5-4.8-1.5-6.3c1.6-1.4,3.5-2.1,5.7-2.1c2.2,0,3.7,0.5,4.5,1.5c0.8,1,1.2,2.5,1.2,4.6   v13.4c0,1.5,0.2,2.5,0.5,3.2c0.3,0.7,1.2,1,2.7,1c1.4,0,2.8-0.7,4.2-2.1V96.2c1.4-0.3,3-0.4,4.9-0.4c1.9,0,3.5,0.1,5,0.4v22.5   c0,2.3,0.6,3.8,1.8,4.6c-0.2,0.8-0.6,1.8-1.2,2.7c-0.6,1-1.2,1.7-1.8,2.2c-3.5-0.1-5.9-1.6-7.5-4.4c-3.3,3-6.5,4.5-9.4,4.5   c-2.9,0-5.2-1-6.7-3.1C271.6,123.1,270.9,120.4,270.9,117z"
       id="path174" /><path
       class="st1"
       d="M316.6,95.5c2,0,4,0.5,5.9,1.4V81.6l0.4-0.4h3.9c2,0,3.4,0.4,4.2,1.3c0.8,0.9,1.2,2.4,1.2,4.6v31.4   c0,2.2,0.6,3.7,1.8,4.5c-0.2,0.9-0.6,1.8-1.2,2.8c-0.6,1-1.2,1.7-1.8,2.2c-3.1-0.1-5.3-1.3-6.8-3.5c-2.5,2.7-5.6,4-9.1,4   c-3.5,0-6.3-1.5-8.1-4.4c-1.9-2.9-2.8-7-2.8-12.1c0-2.5,0.3-4.8,1-6.9c0.7-2,1.5-3.8,2.7-5.2c1.1-1.4,2.5-2.5,4-3.3   C313.2,95.9,314.8,95.5,316.6,95.5z M317.8,120.7c1.7,0,3.3-0.8,4.6-2.5v-13.8c-1.7-1-3.1-1.5-4.1-1.5c-2.9,0-4.3,3.2-4.3,9.5   C314,117.9,315.3,120.7,317.8,120.7z"
       id="path176" /></g></svg>