<?xml version="1.0" encoding="UTF-8" standalone="no"?>
<!-- Created with Inkscape (http://www.inkscape.org/) -->

<svg
   xmlns:dc="http://purl.org/dc/elements/1.1/"
   xmlns:cc="http://creativecommons.org/ns#"
   xmlns:rdf="http://www.w3.org/1999/02/22-rdf-syntax-ns#"
   xmlns:svg="http://www.w3.org/2000/svg"
   xmlns="http://www.w3.org/2000/svg"
   xmlns:sodipodi="http://sodipodi.sourceforge.net/DTD/sodipodi-0.dtd"
   xmlns:inkscape="http://www.inkscape.org/namespaces/inkscape"
   width="146.71848mm"
   height="146.77232mm"
   viewBox="0 0 146.72 257.14667"
   version="1.1"
   id="svg8"
   sodipodi:docname="GPU-symbol-incscape.svg"
   inkscape:version="0.92.2 (5c3e80d, 2017-08-06)">
  <defs
     id="defs2" />
  <sodipodi:namedview
     id="base"
     pagecolor="#ffffff"
     bordercolor="#666666"
     borderopacity="1.0"
     inkscape:pageopacity="0.0"
     inkscape:pageshadow="2"
     inkscape:zoom="1.4142136"
     inkscape:cx="301.16906"
     inkscape:cy="147.06881"
     inkscape:document-units="mm"
     inkscape:current-layer="layer1"
     showgrid="false"
     fit-margin-top="0"
     fit-margin-left="0"
     fit-margin-right="0"
     fit-margin-bottom="0"
     inkscape:window-width="1600"
     inkscape:window-height="1712"
     inkscape:window-x="1592"
     inkscape:window-y="0"
     inkscape:window-maximized="0"
     viewbox-height="146.77" />
  <metadata
     id="metadata5">
    <rdf:RDF>
      <cc:Work
         rdf:about="">
        <dc:format>image/svg+xml</dc:format>
        <dc:type
           rdf:resource="http://purl.org/dc/dcmitype/StillImage" />
        <dc:title></dc:title>
      </cc:Work>
    </rdf:RDF>
  </metadata>
  <g
     inkscape:label="Layer 1"
     inkscape:groupmode="layer"
     id="layer1"
     transform="translate(-28.689212,-8.3161822)">
    <path
       style="fill:#5a5a5a;fill-opacity:1;stroke-width:0.26501909"
       d="m 60.854959,181.53496 v -3.88556 l -0.828896,-0.72191 c -0.648983,-0.56522 -1.002364,-0.68729 -1.628089,-0.56241 -1.279628,0.25541 -1.710394,1.03082 -1.714476,3.0862 -0.0062,3.11534 0.106459,3.00339 -3.022508,3.00339 h -2.704807 v -4.98802 -4.98802 h 35.817947 35.81795 v 0.67406 c 0,0.66885 -0.0181,0.67406 -2.3343,0.67406 -2.03112,0 -2.40007,0.073 -2.84069,0.56257 -0.71476,0.7941 -0.91023,2.18812 -0.46238,3.29751 0.63965,1.58457 1.2011,1.80199 4.65335,1.80199 h 3.06796 v 2.15699 2.15698 h -5.19627 -5.19627 l -0.0788,-1.413 c -0.0617,-1.10743 -0.18003,-1.43294 -0.54711,-1.50519 -0.92204,-0.18149 -1.22483,0.4481 -1.22483,2.54677 v 1.98916 H 92.11424 71.795704 v -2.00292 c 0,-1.46133 -0.11069,-2.11748 -0.409349,-2.42661 -0.927575,-0.96008 -1.414111,-0.21924 -1.414111,2.15324 v 1.92984 l -1.601177,0.17322 c -0.880647,0.0953 -2.932037,0.17323 -4.558646,0.17323 h -2.957472 z m 1.041977,1.45896 c 0,-1.49791 -0.08063,-1.88737 -0.390741,-1.88737 -0.310113,0 -0.390741,0.38946 -0.390741,1.88737 0,1.4979 0.08063,1.88736 0.390741,1.88736 0.310113,0 0.390741,-0.38946 0.390741,-1.88736 z m 1.302471,0 c 0,-1.49791 -0.08063,-1.88737 -0.390742,-1.88737 -0.310112,0 -0.390741,0.38946 -0.390741,1.88737 0,1.4979 0.08063,1.88736 0.390741,1.88736 0.310114,0 0.390742,-0.38946 0.390742,-1.88736 z m 1.302471,0 c 0,-1.49791 -0.08063,-1.88737 -0.390742,-1.88737 -0.310112,0 -0.390741,0.38946 -0.390741,1.88737 0,1.4979 0.08063,1.88736 0.390741,1.88736 0.310113,0 0.390742,-0.38946 0.390742,-1.88736 z m 1.302471,0 c 0,-1.49791 -0.08063,-1.88737 -0.390742,-1.88737 -0.310114,0 -0.390741,0.38946 -0.390741,1.88737 0,1.4979 0.08063,1.88736 0.390741,1.88736 0.310113,0 0.390742,-0.38946 0.390742,-1.88736 z m 1.302469,0 c 0,-1.49791 -0.08063,-1.88737 -0.39074,-1.88737 -0.310114,0 -0.390742,0.38946 -0.390742,1.88737 0,1.4979 0.08063,1.88736 0.390742,1.88736 0.310113,0 0.39074,-0.38946 0.39074,-1.88736 z m 1.302471,0 c 0,-1.49791 -0.08063,-1.88737 -0.39074,-1.88737 -0.310114,0 -0.390742,0.38946 -0.390742,1.88737 0,1.4979 0.08063,1.88736 0.390742,1.88736 0.310112,0 0.39074,-0.38946 0.39074,-1.88736 z m 1.041977,0 c 0,-1.49791 -0.08063,-1.88737 -0.390741,-1.88737 -0.310113,0 -0.390742,0.38946 -0.390742,1.88737 0,1.4979 0.08063,1.88736 0.390742,1.88736 0.310113,0 0.390741,-0.38946 0.390741,-1.88736 z m 3.646917,0 c 0,-1.49791 -0.08063,-1.88737 -0.39074,-1.88737 -0.310114,0 -0.390741,0.38946 -0.390741,1.88737 0,1.4979 0.08063,1.88736 0.390741,1.88736 0.310113,0 0.39074,-0.38946 0.39074,-1.88736 z m 1.302471,0 c 0,-1.49791 -0.08063,-1.88737 -0.390741,-1.88737 -0.310113,0 -0.390741,0.38946 -0.390741,1.88737 0,1.4979 0.08062,1.88736 0.390741,1.88736 0.310113,0 0.390741,-0.38946 0.390741,-1.88736 z m 1.302471,0 c 0,-1.49791 -0.08063,-1.88737 -0.390741,-1.88737 -0.310113,0 -0.390742,0.38946 -0.390742,1.88737 0,1.4979 0.08063,1.88736 0.390742,1.88736 0.310113,0 0.390741,-0.38946 0.390741,-1.88736 z m 1.302471,0 c 0,-1.49791 -0.08063,-1.88737 -0.390742,-1.88737 -0.310112,0 -0.390741,0.38946 -0.390741,1.88737 0,1.4979 0.08063,1.88736 0.390741,1.88736 0.310113,0 0.390742,-0.38946 0.390742,-1.88736 z m 1.302471,0 c 0,-1.49791 -0.08063,-1.88737 -0.390742,-1.88737 -0.310114,0 -0.390741,0.38946 -0.390741,1.88737 0,1.4979 0.08063,1.88736 0.390741,1.88736 0.310113,0 0.390742,-0.38946 0.390742,-1.88736 z m 1.041975,0 c 0,-1.49791 -0.08063,-1.88737 -0.390741,-1.88737 -0.310113,0 -0.39074,0.38946 -0.39074,1.88737 0,1.4979 0.08063,1.88736 0.39074,1.88736 0.310114,0 0.390741,-0.38946 0.390741,-1.88736 z m 1.302471,0 c 0,-1.49791 -0.08063,-1.88737 -0.390741,-1.88737 -0.310113,0 -0.390742,0.38946 -0.390742,1.88737 0,1.4979 0.08063,1.88736 0.390742,1.88736 0.310113,0 0.390741,-0.38946 0.390741,-1.88736 z m 1.302471,0 c 0,-1.49791 -0.08063,-1.88737 -0.390741,-1.88737 -0.310113,0 -0.390742,0.38946 -0.390742,1.88737 0,1.4979 0.08063,1.88736 0.390742,1.88736 0.310112,0 0.390741,-0.38946 0.390741,-1.88736 z m 1.302471,0 c 0,-1.49791 -0.08063,-1.88737 -0.390742,-1.88737 -0.310112,0 -0.390741,0.38946 -0.390741,1.88737 0,1.4979 0.08063,1.88736 0.390741,1.88736 0.310113,0 0.390742,-0.38946 0.390742,-1.88736 z m 1.302471,0 c 0,-1.49791 -0.08063,-1.88737 -0.390742,-1.88737 -0.310113,0 -0.390741,0.38946 -0.390741,1.88737 0,1.4979 0.08063,1.88736 0.390741,1.88736 0.310113,0 0.390742,-0.38946 0.390742,-1.88736 z m 1.302474,0 c 0,-1.49791 -0.0806,-1.88737 -0.39075,-1.88737 -0.310109,0 -0.390737,0.38946 -0.390737,1.88737 0,1.4979 0.08063,1.88736 0.390737,1.88736 0.31012,0 0.39075,-0.38946 0.39075,-1.88736 z m 1.30247,0 c 0,-1.49791 -0.0806,-1.88737 -0.39074,-1.88737 -0.31012,0 -0.39075,0.38946 -0.39075,1.88737 0,1.4979 0.0806,1.88736 0.39075,1.88736 0.31011,0 0.39074,-0.38946 0.39074,-1.88736 z m 1.30247,0 c 0,-1.49791 -0.0806,-1.88737 -0.39074,-1.88737 -0.31012,0 -0.39075,0.38946 -0.39075,1.88737 0,1.4979 0.0806,1.88736 0.39075,1.88736 0.31011,0 0.39074,-0.38946 0.39074,-1.88736 z m 1.30247,0 c 0,-1.49791 -0.0806,-1.88737 -0.39074,-1.88737 -0.31012,0 -0.39074,0.38946 -0.39074,1.88737 0,1.4979 0.0806,1.88736 0.39074,1.88736 0.31011,0 0.39074,-0.38946 0.39074,-1.88736 z m 1.30247,0 c 0,-1.49791 -0.0806,-1.88737 -0.39074,-1.88737 -0.31012,0 -0.39074,0.38946 -0.39074,1.88737 0,1.4979 0.0806,1.88736 0.39074,1.88736 0.31011,0 0.39074,-0.38946 0.39074,-1.88736 z m 1.30247,0 c 0,-1.49791 -0.0806,-1.88737 -0.39074,-1.88737 -0.31012,0 -0.39074,0.38946 -0.39074,1.88737 0,1.4979 0.0806,1.88736 0.39074,1.88736 0.31011,0 0.39074,-0.38946 0.39074,-1.88736 z m 1.30247,0 c 0,-1.49791 -0.0806,-1.88737 -0.39074,-1.88737 -0.31011,0 -0.39074,0.38946 -0.39074,1.88737 0,1.4979 0.0806,1.88736 0.39074,1.88736 0.31011,0 0.39074,-0.38946 0.39074,-1.88736 z m 1.30247,0 c 0,-1.49791 -0.0806,-1.88737 -0.39074,-1.88737 -0.31011,0 -0.39074,0.38946 -0.39074,1.88737 0,1.4979 0.0806,1.88736 0.39074,1.88736 0.31011,0 0.39074,-0.38946 0.39074,-1.88736 z m 1.30247,0 c 0,-1.49791 -0.0806,-1.88737 -0.39074,-1.88737 -0.31011,0 -0.39074,0.38946 -0.39074,1.88737 0,1.4979 0.0806,1.88736 0.39074,1.88736 0.31011,0 0.39074,-0.38946 0.39074,-1.88736 z m 1.30247,0 c 0,-1.49791 -0.0806,-1.88737 -0.39074,-1.88737 -0.31011,0 -0.39074,0.38946 -0.39074,1.88737 0,1.4979 0.0806,1.88736 0.39074,1.88736 0.31012,0 0.39074,-0.38946 0.39074,-1.88736 z m 1.30246,0 c 0,-1.49791 -0.0806,-1.88737 -0.39074,-1.88737 -0.31011,0 -0.39073,0.38946 -0.39073,1.88737 0,1.4979 0.0806,1.88736 0.39073,1.88736 0.31012,0 0.39074,-0.38946 0.39074,-1.88736 z m 1.30248,0 c 0,-1.49791 -0.0806,-1.88737 -0.39074,-1.88737 -0.31011,0 -0.39074,0.38946 -0.39074,1.88737 0,1.4979 0.0806,1.88736 0.39074,1.88736 0.31012,0 0.39074,-0.38946 0.39074,-1.88736 z m 1.30246,0 c 0,-1.49791 -0.0806,-1.88737 -0.39074,-1.88737 -0.31011,0 -0.39074,0.38946 -0.39074,1.88737 0,1.4979 0.0806,1.88736 0.39074,1.88736 0.31012,0 0.39074,-0.38946 0.39074,-1.88736 z m 1.30248,0 c 0,-1.49791 -0.0806,-1.88737 -0.39074,-1.88737 -0.31011,0 -0.39074,0.38946 -0.39074,1.88737 0,1.4979 0.0806,1.88736 0.39074,1.88736 0.31011,0 0.39074,-0.38946 0.39074,-1.88736 z m 1.30247,0 c 0,-1.49791 -0.0806,-1.88737 -0.39075,-1.88737 -0.31011,0 -0.39074,0.38946 -0.39074,1.88737 0,1.4979 0.0806,1.88736 0.39074,1.88736 0.31012,0 0.39075,-0.38946 0.39075,-1.88736 z m 1.30248,0 c 0,-1.49791 -0.0806,-1.88737 -0.39074,-1.88737 -0.31011,0 -0.39074,0.38946 -0.39074,1.88737 0,1.4979 0.0806,1.88736 0.39074,1.88736 0.31012,0 0.39074,-0.38946 0.39074,-1.88736 z m 1.30247,0 c 0,-1.49791 -0.0806,-1.88737 -0.39074,-1.88737 -0.31012,0 -0.39074,0.38946 -0.39074,1.88737 0,1.4979 0.0806,1.88736 0.39074,1.88736 0.31011,0 0.39074,-0.38946 0.39074,-1.88736 z m 1.30248,0 c 0,-1.49791 -0.0806,-1.88737 -0.39074,-1.88737 -0.31012,0 -0.39075,0.38946 -0.39075,1.88737 0,1.4979 0.0806,1.88736 0.39075,1.88736 0.31011,0 0.39074,-0.38946 0.39074,-1.88736 z m 1.30246,0 c 0,-1.49791 -0.0806,-1.88737 -0.39074,-1.88737 -0.31011,0 -0.39074,0.38946 -0.39074,1.88737 0,1.4979 0.0806,1.88736 0.39074,1.88736 0.31011,0 0.39074,-0.38946 0.39074,-1.88736 z m 1.04198,0 c 0,-1.49791 -0.0806,-1.88737 -0.39074,-1.88737 -0.31012,0 -0.39074,0.38946 -0.39074,1.88737 0,1.4979 0.0806,1.88736 0.39074,1.88736 0.31011,0 0.39074,-0.38946 0.39074,-1.88736 z m 1.30246,0 c 0,-1.49791 -0.0806,-1.88737 -0.39074,-1.88737 -0.3101,0 -0.39074,0.38946 -0.39074,1.88737 0,1.4979 0.0806,1.88736 0.39074,1.88736 0.31012,0 0.39074,-0.38946 0.39074,-1.88736 z m -88.277444,1.19162 -0.551049,-0.7251 V 134.5603 85.660141 h -5.039262 c -4.646011,0 -5.074737,-0.0406 -5.493855,-0.519921 -0.574014,-0.656509 -0.351076,-1.454326 0.521358,-1.865765 0.812933,-0.38337 12.039022,-0.424684 12.616701,-0.04648 0.34559,0.226284 0.379782,6.028621 0.295904,50.213085 -0.06981,36.77289 -0.173573,50.13512 -0.393181,50.63129 -0.420404,0.94983 -1.282851,0.9997 -1.956616,0.11314 z m 12.278287,-12.98747 -7.879946,-0.0755 V 132.30092 93.479203 h 74.710803 74.71083 l 1.1581,0.77634 c 0.63695,0.42698 3.34551,3.06591 6.01901,5.864277 3.95497,4.1397 4.91243,5.28903 5.13734,6.16677 0.18484,0.72135 0.28395,9.54021 0.29911,26.6148 l 0.0227,25.53598 -0.59389,0.83141 c -0.32663,0.45728 -3.0758,3.24907 -6.10926,6.204 -4.74708,4.62415 -5.67345,5.41029 -6.65009,5.64337 -1.01556,0.24238 -117.023078,0.30987 -140.824688,0.082 z m 46.736715,-9.79256 c 6.295432,-0.72659 11.850362,-3.39383 16.415112,-7.88185 2.58544,-2.54198 4.26504,-4.89145 5.82067,-8.1421 3.89992,-8.14934 3.99418,-17.27058 0.26251,-25.39999 -1.9043,-4.1485 -5.00016,-8.07443 -8.58634,-10.88854 -5.30872,-4.16583 -12.932145,-6.37386 -19.485059,-5.6436 -9.988205,1.11307 -18.507129,7.30576 -22.742333,16.53214 -3.627881,7.90331 -3.627881,17.0129 0,24.91621 1.904292,4.1485 5.000153,8.07443 8.586329,10.88854 3.535126,2.77406 9.111553,5.07877 13.564356,5.60608 2.809807,0.33275 3.384605,0.33397 6.164755,0.0131 z m -5.410726,-1.16074 c -2.651192,-0.59061 -3.404092,-1.54702 -4.292144,-5.4523 -0.819162,-3.60235 -0.205819,-11.31923 1.108794,-13.9505 0.373363,-0.7473 0.356809,-0.81524 -0.396087,-1.62525 -0.432154,-0.46494 -1.098056,-1.39133 -1.479781,-2.05865 -0.381723,-0.66732 -0.639297,-1.0313 -0.572383,-0.80887 0.06692,0.22244 0.332375,1.09682 0.589917,1.94306 l 0.468256,1.53863 -0.924613,1.56203 c -2.582159,4.36228 -3.327554,6.85431 -3.554927,11.88491 -0.161959,3.58333 -0.185449,3.7002 -0.760642,3.78466 -0.860782,0.12643 -4.53276,-2.49643 -6.596709,-4.71194 -2.963978,-3.18164 -3.419062,-4.82879 -2.068395,-7.48643 2.113541,-4.15869 7.0338,-8.93251 10.869693,-10.54617 l 1.440356,-0.60592 0.101137,-1.34008 c 0.05562,-0.73706 0.272323,-1.84231 0.481562,-2.45613 0.597816,-1.75378 0.07186,-1.30574 -0.894615,0.76208 l -0.877821,1.87813 -1.451828,0.30951 c -2.677488,0.57082 -6.21961,2.05003 -7.897442,3.29802 -0.896337,0.6667 -2.52786,2.07348 -3.625609,3.12616 -1.332164,1.27749 -2.131774,1.86001 -2.40448,1.7517 -0.526224,-0.20901 -0.857703,-1.42959 -1.382873,-5.09205 -0.70711,-4.93134 0.05563,-8.31866 2.136339,-9.48746 3.349163,-1.88131 12.398965,-1.88982 16.354691,-0.0154 l 1.380747,0.65427 1.009333,-0.90307 c 1.061647,-0.94989 0.991944,-1.08805 -0.311613,-0.61771 -0.711493,0.25672 -0.970416,0.17116 -2.578692,-0.85207 -3.967382,-2.52418 -6.473542,-3.28662 -11.881931,-3.61476 -2.902839,-0.17611 -3.060863,-0.21563 -3.061917,-0.76575 -0.0016,-0.84831 2.741642,-4.90413 4.612018,-6.8187 2.960934,-3.03087 4.682833,-3.42991 7.724472,-1.79012 3.356712,1.80966 8.675703,7.86549 9.816062,11.17588 0.340352,0.98803 0.344751,0.99036 2.054403,1.08694 0.942327,0.0532 1.7568,0.0682 1.809944,0.0333 0.05314,-0.035 -0.427067,-0.32685 -1.06713,-0.64872 -1.139486,-0.57301 -1.173427,-0.62807 -1.627736,-2.64116 -1.052375,-4.66313 -2.561571,-7.48384 -6.105974,-11.41215 -1.24402,-1.37876 -1.79753,-2.18884 -1.691329,-2.47529 0.203058,-0.5477 1.377811,-0.88998 4.924396,-1.43479 2.368736,-0.36387 3.219893,-0.38646 4.916629,-0.13049 2.487817,0.37532 3.49257,0.94014 4.27542,2.40343 1.72854,3.23097 1.82289,12.12725 0.17369,16.37844 l -0.624718,1.61037 0.618078,0.68143 c 0.33994,0.37477 0.98158,1.28147 1.42587,2.0149 0.95176,1.57115 0.97147,1.53511 0.28681,-0.52463 -0.28655,-0.86204 -0.52099,-1.72798 -0.52099,-1.92433 0,-0.19634 0.42454,-1.04391 0.94343,-1.88349 1.21774,-1.97035 2.54175,-4.99611 2.93543,-6.70834 0.17059,-0.74195 0.39333,-2.98656 0.49498,-4.98802 0.17856,-3.51608 0.20486,-3.64196 0.77833,-3.72618 0.86821,-0.12751 4.53946,2.50365 6.64153,4.75995 2.05671,2.2076 2.91658,3.94262 2.71706,5.48235 -0.44847,3.46072 -7.08598,10.62224 -11.60044,12.51624 -1.45191,0.60914 -1.47879,0.64012 -1.54542,1.78134 -0.0624,1.06881 -0.0372,1.12075 0.31623,0.65136 0.21122,-0.28055 0.41756,-0.58961 0.45855,-0.6868 0.041,-0.0972 1.07091,-0.43142 2.28872,-0.74273 4.6991,-1.20119 6.70725,-2.35436 10.50588,-6.03295 2.16419,-2.09578 2.30048,-2.18239 2.7588,-1.75309 1.12481,1.05362 1.87333,8.94283 1.10705,11.66814 -0.81006,2.88099 -2.93078,3.86031 -8.78704,4.05781 -3.98346,0.13434 -6.53353,-0.16051 -8.98603,-1.03899 l -1.55689,-0.55767 -0.8885,0.76402 c -1.129795,0.97151 -1.146196,1.18789 -0.064,0.84411 0.77105,-0.24493 1.01188,-0.17494 2.27933,0.66242 3.93738,2.6013 6.51737,3.43214 11.39056,3.6681 l 3.57231,0.17299 0.0784,0.69832 c 0.18279,1.6281 -4.75613,7.77939 -7.28678,9.07549 -1.54255,0.79004 -2.53399,0.76554 -4.1969,-0.10371 -3.96763,-2.07393 -8.141383,-6.49914 -10.139253,-10.75012 l -0.85796,-1.82554 -1.432719,-0.0912 -1.432717,-0.0912 1.098412,0.58171 c 1.00778,0.53369 1.123197,0.70559 1.398776,2.08326 0.524661,2.62287 1.818424,6.02733 2.978473,7.8377 0.617654,0.9639 2.012422,2.74261 3.099488,3.95269 1.32683,1.47697 1.92489,2.33932 1.81951,2.62356 -0.19397,0.52319 -1.33653,0.87175 -4.533541,1.38307 -2.909949,0.46542 -4.289929,0.47168 -6.279313,0.0285 z m 73.660188,0.6215 c 6.29544,-0.72659 11.85036,-3.39383 16.41512,-7.88185 2.58545,-2.54198 4.26504,-4.89145 5.82067,-8.1421 3.8999,-8.14934 3.99417,-17.27058 0.2625,-25.4 -1.9043,-4.14849 -5.00016,-8.07443 -8.58633,-10.88854 -5.30872,-4.16583 -12.93215,-6.37386 -19.48507,-5.6436 -9.9882,1.11308 -18.50712,7.30577 -22.74232,16.53214 -3.62789,7.90332 -3.62789,17.0129 0,24.91622 1.90429,4.14849 5.00014,8.07443 8.58632,10.88854 3.53513,2.77406 9.11155,5.07877 13.56436,5.60608 2.80981,0.33274 3.3846,0.33397 6.16475,0.0131 z m -5.15023,-1.16074 c -2.65119,-0.59061 -3.40409,-1.54702 -4.29215,-5.45231 -0.81915,-3.60234 -0.20581,-11.31923 1.1088,-13.9505 0.37337,-0.74731 0.35681,-0.81523 -0.39609,-1.62524 -0.43215,-0.46495 -1.09805,-1.39134 -1.47977,-2.05865 -0.38173,-0.66732 -0.6393,-1.03131 -0.57239,-0.80888 0.0669,0.22245 0.33237,1.09683 0.58991,1.94306 l 0.46827,1.53862 -0.92462,1.56204 c -2.58216,4.36228 -3.32755,6.85431 -3.55493,11.88492 -0.16195,3.58332 -0.18545,3.70019 -0.76064,3.78466 -0.86078,0.12642 -4.53275,-2.49644 -6.59671,-4.71195 -2.96397,-3.18163 -3.41906,-4.82878 -2.06839,-7.48642 2.11353,-4.1587 7.0338,-8.93252 10.86969,-10.54618 l 1.44035,-0.60591 0.1011,-1.34009 c 0.0556,-0.73705 0.27232,-1.8423 0.48157,-2.45613 0.59781,-1.75377 0.0719,-1.30574 -0.89462,0.76208 l -0.87782,1.87813 -1.45183,0.30951 c -2.67749,0.57083 -6.21961,2.05003 -7.89744,3.29802 -0.89634,0.66671 -2.52786,2.07348 -3.62561,3.12617 -1.33216,1.27749 -2.13178,1.86 -2.40448,1.75169 -0.52622,-0.209 -0.85771,-1.42958 -1.38287,-5.09205 -0.70711,-4.93133 0.0556,-8.31865 2.13634,-9.48745 3.34915,-1.88131 12.39896,-1.88982 16.35469,-0.0154 l 1.38075,0.65428 1.00933,-0.90307 c 1.06164,-0.94989 0.99194,-1.08805 -0.31162,-0.61771 -0.71148,0.25672 -0.97041,0.17116 -2.57868,-0.85208 -3.96739,-2.52419 -6.47355,-3.28661 -11.88193,-3.61475 -2.90285,-0.17612 -3.06087,-0.21563 -3.06192,-0.76575 -10e-4,-0.84832 2.74164,-4.90413 4.61202,-6.8187 2.96092,-3.03087 4.68282,-3.42992 7.72446,-1.79012 3.35671,1.80965 8.67571,7.86549 9.81606,11.17588 0.34036,0.98802 0.34476,0.99036 2.05441,1.08694 0.94233,0.0532 1.75679,0.0683 1.80994,0.0333 0.0531,-0.035 -0.42706,-0.32686 -1.06712,-0.64872 -1.13949,-0.57301 -1.17344,-0.62807 -1.62775,-2.64117 -1.05236,-4.66312 -2.56156,-7.48384 -6.10597,-11.41214 -1.24402,-1.37877 -1.79753,-2.18884 -1.69132,-2.4753 0.20305,-0.54769 1.3778,-0.88997 4.92439,-1.43479 2.36873,-0.36386 3.21989,-0.38645 4.91663,-0.13049 2.48781,0.37531 3.49256,0.94015 4.27542,2.40344 1.72854,3.23097 1.82289,12.12724 0.1737,16.37844 l -0.62473,1.61037 0.61808,0.68142 c 0.33994,0.37478 0.98158,1.28148 1.42587,2.01491 0.95176,1.57115 0.97147,1.5351 0.28681,-0.52463 -0.28655,-0.86204 -0.521,-1.72798 -0.521,-1.92433 0,-0.19634 0.42455,-1.04391 0.94344,-1.8835 1.21774,-1.97034 2.54176,-4.9961 2.93543,-6.70833 0.17059,-0.74195 0.39333,-2.98656 0.49497,-4.98802 0.17856,-3.51608 0.20487,-3.64197 0.77833,-3.72618 0.86822,-0.12752 4.53947,2.50364 6.64155,4.75995 2.05671,2.2076 2.91658,3.94262 2.71706,5.48235 -0.44847,3.46072 -7.08599,10.62224 -11.60045,12.51623 -1.45191,0.60914 -1.47878,0.64012 -1.54542,1.78134 -0.0624,1.06882 -0.0372,1.12076 0.31622,0.65136 0.21122,-0.28055 0.41757,-0.58961 0.45856,-0.6868 0.041,-0.0972 1.07091,-0.43141 2.28871,-0.74272 4.69911,-1.2012 6.70727,-2.35437 10.5059,-6.03295 2.16419,-2.09578 2.30048,-2.1824 2.75879,-1.75309 1.12481,1.05361 1.87333,8.94283 1.10705,11.66814 -0.81007,2.88098 -2.93077,3.86031 -8.78704,4.05781 -3.98346,0.13433 -6.53354,-0.16051 -8.98603,-1.03899 l -1.55689,-0.55768 -0.88851,0.76403 c -1.12979,0.97151 -1.14618,1.18789 -0.064,0.84411 0.77104,-0.24494 1.01186,-0.17494 2.27932,0.66241 3.93738,2.60131 6.51738,3.43215 11.39056,3.66811 l 3.57231,0.17298 0.0784,0.69833 c 0.18279,1.62809 -4.75613,7.77938 -7.28679,9.07549 -1.54254,0.79004 -2.53398,0.76554 -4.19688,-0.10372 -3.96765,-2.07391 -8.14139,-6.49912 -10.13926,-10.7501 l -0.85796,-1.82554 -1.43272,-0.0912 -1.43272,-0.0912 1.09841,0.58171 c 1.00778,0.53369 1.1232,0.70559 1.39878,2.08326 0.52465,2.62286 1.81843,6.02733 2.97848,7.8377 0.61764,0.9639 2.01241,2.74261 3.09948,3.95269 1.32683,1.47697 1.92489,2.33932 1.81951,2.62356 -0.19397,0.52319 -1.33653,0.87175 -4.53354,1.38307 -2.90995,0.46542 -4.28993,0.47168 -6.27932,0.0285 z"
       id="path4547"
       inkscape:connector-curvature="0" />
  </g>
</svg>
